G04 #@! TF.GenerationSoftware,KiCad,Pcbnew,(7.0.0-0)*
G04 #@! TF.CreationDate,2023-04-02T13:15:13+01:00*
G04 #@! TF.ProjectId,AuxBoard,41757842-6f61-4726-942e-6b696361645f,rev?*
G04 #@! TF.SameCoordinates,Original*
G04 #@! TF.FileFunction,Soldermask,Bot*
G04 #@! TF.FilePolarity,Negative*
%FSLAX46Y46*%
G04 Gerber Fmt 4.6, Leading zero omitted, Abs format (unit mm)*
G04 Created by KiCad (PCBNEW (7.0.0-0)) date 2023-04-02 13:15:13*
%MOMM*%
%LPD*%
G01*
G04 APERTURE LIST*
G04 Aperture macros list*
%AMRoundRect*
0 Rectangle with rounded corners*
0 $1 Rounding radius*
0 $2 $3 $4 $5 $6 $7 $8 $9 X,Y pos of 4 corners*
0 Add a 4 corners polygon primitive as box body*
4,1,4,$2,$3,$4,$5,$6,$7,$8,$9,$2,$3,0*
0 Add four circle primitives for the rounded corners*
1,1,$1+$1,$2,$3*
1,1,$1+$1,$4,$5*
1,1,$1+$1,$6,$7*
1,1,$1+$1,$8,$9*
0 Add four rect primitives between the rounded corners*
20,1,$1+$1,$2,$3,$4,$5,0*
20,1,$1+$1,$4,$5,$6,$7,0*
20,1,$1+$1,$6,$7,$8,$9,0*
20,1,$1+$1,$8,$9,$2,$3,0*%
G04 Aperture macros list end*
%ADD10C,2.750000*%
%ADD11R,1.600000X1.600000*%
%ADD12O,1.600000X1.600000*%
%ADD13R,1.700000X1.700000*%
%ADD14O,1.700000X1.700000*%
%ADD15C,3.000000*%
%ADD16RoundRect,0.250001X1.599999X-1.099999X1.599999X1.099999X-1.599999X1.099999X-1.599999X-1.099999X0*%
%ADD17O,3.700000X2.700000*%
%ADD18R,1.500000X4.000000*%
G04 #@! TA.AperFunction,Profile*
%ADD19C,0.200000*%
G04 #@! TD*
G04 APERTURE END LIST*
D10*
X128500000Y-79375000D03*
D11*
X150974999Y-78799999D03*
D12*
X153514999Y-78799999D03*
X156054999Y-78799999D03*
X158594999Y-78799999D03*
X161134999Y-78799999D03*
X163674999Y-78799999D03*
X166214999Y-78799999D03*
X166214999Y-71179999D03*
X163674999Y-71179999D03*
X161134999Y-71179999D03*
X158594999Y-71179999D03*
X156054999Y-71179999D03*
X153514999Y-71179999D03*
X150974999Y-71179999D03*
D13*
X176674999Y-102839999D03*
D14*
X176674999Y-100299999D03*
X176674999Y-97759999D03*
D15*
X108625000Y-99200000D03*
X108625000Y-53000000D03*
D16*
X115925000Y-99200000D03*
D17*
X115924999Y-94999999D03*
X115924999Y-90799999D03*
X115924999Y-86599999D03*
X115924999Y-82399999D03*
X115924999Y-78199999D03*
X115924999Y-73999999D03*
X115924999Y-69799999D03*
X115924999Y-65599999D03*
X115924999Y-61399999D03*
X115924999Y-57199999D03*
X115924999Y-52999999D03*
X121424999Y-99199999D03*
X121424999Y-94999999D03*
X121424999Y-90799999D03*
X121424999Y-86599999D03*
X121424999Y-82399999D03*
X121424999Y-78199999D03*
X121424999Y-73999999D03*
X121424999Y-69799999D03*
X121424999Y-65599999D03*
X121424999Y-61399999D03*
X121424999Y-57199999D03*
X121424999Y-52999999D03*
D13*
X138299999Y-102839999D03*
D14*
X138299999Y-100299999D03*
X138299999Y-97759999D03*
D13*
X142699999Y-102799999D03*
D14*
X142699999Y-100259999D03*
D13*
X155974999Y-102839999D03*
D14*
X155974999Y-100299999D03*
X155974999Y-97759999D03*
D18*
X133369999Y-58569999D03*
X133369999Y-53459999D03*
X135909999Y-58569999D03*
X135909999Y-53459999D03*
X138449999Y-58569999D03*
X138449999Y-53429999D03*
X140989999Y-58569999D03*
X140989999Y-53429999D03*
X143529999Y-58569999D03*
X143529999Y-53429999D03*
X146069999Y-58569999D03*
X146069999Y-53429999D03*
X148609999Y-58569999D03*
X148609999Y-53429999D03*
X151149999Y-58569999D03*
X151149999Y-53429999D03*
X153689999Y-58569999D03*
X153689999Y-53429999D03*
X156229999Y-58569999D03*
X156229999Y-53429999D03*
X158769999Y-58569999D03*
X158769999Y-53429999D03*
X161309999Y-58569999D03*
X161309999Y-53429999D03*
X163849999Y-58569999D03*
X163849999Y-53429999D03*
X166389999Y-58569999D03*
X166389999Y-53429999D03*
X168929999Y-58569999D03*
X168929999Y-53429999D03*
X171469999Y-58569999D03*
X171469999Y-53429999D03*
X174009999Y-58569999D03*
X174009999Y-53429999D03*
X176549999Y-58569999D03*
X176549999Y-53429999D03*
X179089999Y-58569999D03*
X179089999Y-53429999D03*
X181629999Y-58569999D03*
X181629999Y-53429999D03*
D13*
X160224999Y-102749999D03*
D14*
X160224999Y-100209999D03*
D13*
X147124999Y-102839999D03*
D14*
X147124999Y-100299999D03*
X147124999Y-97759999D03*
D10*
X128500000Y-105375000D03*
X186500000Y-105375000D03*
X128500000Y-56125000D03*
X186500000Y-79375000D03*
D13*
X164374999Y-102839999D03*
D14*
X164374999Y-100299999D03*
X164374999Y-97759999D03*
D13*
X187099999Y-94099999D03*
D14*
X187099999Y-91559999D03*
D10*
X186500000Y-56125000D03*
D13*
X106799999Y-104399999D03*
D14*
X109339999Y-104399999D03*
X106799999Y-106939999D03*
X109339999Y-106939999D03*
D19*
X104750000Y-49750000D02*
X190000000Y-49750000D01*
X190000000Y-49750000D02*
X190000000Y-109000000D01*
X190000000Y-109000000D02*
X104750000Y-109000000D01*
X104750000Y-109000000D02*
X104750000Y-49750000D01*
M02*
