M48
; DRILL file {KiCad (7.0.0-0)} date Sunday, 02 April 2023 at 13:15:16
; FORMAT={-:-/ absolute / metric / decimal}
; #@! TF.CreationDate,2023-04-02T13:15:16+01:00
; #@! TF.GenerationSoftware,Kicad,Pcbnew,(7.0.0-0)
; #@! TF.FileFunction,Plated,1,2,PTH
FMAT,2
METRIC
; #@! TA.AperFunction,Plated,PTH,ViaDrill
T1C0.400
; #@! TA.AperFunction,Plated,PTH,ViaDrill
T2C0.800
; #@! TA.AperFunction,Plated,PTH,ComponentDrill
T3C0.800
; #@! TA.AperFunction,Plated,PTH,ComponentDrill
T4C1.000
; #@! TA.AperFunction,Plated,PTH,ComponentDrill
T5C1.800
%
G90
G05
T1
X106.6Y-58.8
X106.6Y-75.7
X106.9Y-88.2
X111.6Y-61.3
X111.8Y-74.0
X119.0Y-101.4
X121.9Y-107.5
X127.1Y-68.325
X127.2Y-63.1
X128.4Y-71.7
X129.4Y-60.5
X129.5Y-91.3
X129.7Y-51.3
X129.7Y-68.6
X131.4Y-63.0
X131.8Y-74.7
X131.9Y-90.8
X134.6Y-80.3
X139.3Y-107.0
X141.9Y-81.3
X149.2Y-91.7
X149.8Y-65.0
X149.8Y-68.7
X151.3Y-96.9
X152.1Y-74.5
X152.1Y-93.0
X153.1Y-64.2
X159.0Y-67.1
X159.7Y-64.4
X164.3Y-65.0
X165.1Y-74.7
X169.3Y-96.9
X169.5Y-86.7
X169.5Y-90.7
X169.7Y-81.0
X173.2Y-64.3
X173.9Y-69.4
X175.8Y-74.4
X178.3Y-64.7
X179.9Y-79.2
X181.7Y-106.9
X182.4Y-62.0
X182.4Y-66.3
X182.4Y-69.6
X185.907Y-51.804
X186.9Y-73.4
X187.0Y-62.4
X187.0Y-67.6
T2
X115.1Y-107.1
X118.8Y-107.5
X124.8Y-63.7
X125.1Y-99.6
T3
X150.975Y-71.18
X150.975Y-78.8
X153.515Y-71.18
X153.515Y-78.8
X156.055Y-71.18
X156.055Y-78.8
X158.595Y-71.18
X158.595Y-78.8
X161.135Y-71.18
X161.135Y-78.8
X163.675Y-71.18
X163.675Y-78.8
X166.215Y-71.18
X166.215Y-78.8
T4
X106.8Y-104.4
X106.8Y-106.94
X109.34Y-104.4
X109.34Y-106.94
X133.37Y-54.76
X133.37Y-57.27
X135.91Y-54.76
X135.91Y-57.27
X138.3Y-97.76
X138.3Y-100.3
X138.3Y-102.84
X138.45Y-54.73
X138.45Y-57.27
X140.99Y-54.73
X140.99Y-57.27
X142.7Y-100.26
X142.7Y-102.8
X143.53Y-54.73
X143.53Y-57.27
X146.07Y-54.73
X146.07Y-57.27
X147.125Y-97.76
X147.125Y-100.3
X147.125Y-102.84
X148.61Y-54.73
X148.61Y-57.27
X151.15Y-54.73
X151.15Y-57.27
X153.69Y-54.73
X153.69Y-57.27
X155.975Y-97.76
X155.975Y-100.3
X155.975Y-102.84
X156.23Y-54.73
X156.23Y-57.27
X158.77Y-54.73
X158.77Y-57.27
X160.225Y-100.21
X160.225Y-102.75
X161.31Y-54.73
X161.31Y-57.27
X163.85Y-54.73
X163.85Y-57.27
X164.375Y-97.76
X164.375Y-100.3
X164.375Y-102.84
X166.39Y-54.73
X166.39Y-57.27
X168.93Y-54.73
X168.93Y-57.27
X171.47Y-54.73
X171.47Y-57.27
X174.01Y-54.73
X174.01Y-57.27
X176.55Y-54.73
X176.55Y-57.27
X176.675Y-97.76
X176.675Y-100.3
X176.675Y-102.84
X179.09Y-54.73
X179.09Y-57.27
X181.63Y-54.73
X181.63Y-57.27
X187.1Y-91.56
X187.1Y-94.1
T5
X115.925Y-53.0
X115.925Y-57.2
X115.925Y-61.4
X115.925Y-65.6
X115.925Y-69.8
X115.925Y-74.0
X115.925Y-78.2
X115.925Y-82.4
X115.925Y-86.6
X115.925Y-90.8
X115.925Y-95.0
X115.925Y-99.2
X121.425Y-53.0
X121.425Y-57.2
X121.425Y-61.4
X121.425Y-65.6
X121.425Y-69.8
X121.425Y-74.0
X121.425Y-78.2
X121.425Y-82.4
X121.425Y-86.6
X121.425Y-90.8
X121.425Y-95.0
X121.425Y-99.2
T0
M30
