%TF.GenerationSoftware,KiCad,Pcbnew,(7.0.0-0)*%
%TF.CreationDate,2023-03-06T18:17:48+00:00*%
%TF.ProjectId,AuxBoard,41757842-6f61-4726-942e-6b696361645f,rev?*%
%TF.SameCoordinates,Original*%
%TF.FileFunction,Drillmap*%
%TF.FilePolarity,Positive*%
%FSLAX45Y45*%
G04 Gerber Fmt 4.5, Leading zero omitted, Abs format (unit mm)*
G04 Created by KiCad (PCBNEW (7.0.0-0)) date 2023-03-06 18:17:48*
%MOMM*%
%LPD*%
G01*
G04 APERTURE LIST*
%ADD10C,0.200000*%
%ADD11C,0.040000*%
%ADD12C,0.080000*%
%ADD13C,0.100000*%
%ADD14C,0.180000*%
G04 APERTURE END LIST*
D10*
X10475000Y-4975000D02*
X19000000Y-4975000D01*
X19000000Y-4975000D02*
X19000000Y-10900000D01*
X19000000Y-10900000D02*
X10475000Y-10900000D01*
X10475000Y-10900000D02*
X10475000Y-4975000D01*
D11*
X10640000Y-5860000D02*
X10680000Y-5900000D01*
X10680000Y-5860000D02*
X10640000Y-5900000D01*
X10640000Y-7550000D02*
X10680000Y-7590000D01*
X10680000Y-7550000D02*
X10640000Y-7590000D01*
X10670000Y-8800000D02*
X10710000Y-8840000D01*
X10710000Y-8800000D02*
X10670000Y-8840000D01*
X11140000Y-6110000D02*
X11180000Y-6150000D01*
X11180000Y-6110000D02*
X11140000Y-6150000D01*
X11160000Y-7380000D02*
X11200000Y-7420000D01*
X11200000Y-7380000D02*
X11160000Y-7420000D01*
X11880000Y-10120000D02*
X11920000Y-10160000D01*
X11920000Y-10120000D02*
X11880000Y-10160000D01*
X12170000Y-10730000D02*
X12210000Y-10770000D01*
X12210000Y-10730000D02*
X12170000Y-10770000D01*
X12690000Y-6812500D02*
X12730000Y-6852500D01*
X12730000Y-6812500D02*
X12690000Y-6852500D01*
X12700000Y-6290000D02*
X12740000Y-6330000D01*
X12740000Y-6290000D02*
X12700000Y-6330000D01*
X12820000Y-7150000D02*
X12860000Y-7190000D01*
X12860000Y-7150000D02*
X12820000Y-7190000D01*
X12920000Y-6030000D02*
X12960000Y-6070000D01*
X12960000Y-6030000D02*
X12920000Y-6070000D01*
X12930000Y-9110000D02*
X12970000Y-9150000D01*
X12970000Y-9110000D02*
X12930000Y-9150000D01*
X12950000Y-5110000D02*
X12990000Y-5150000D01*
X12990000Y-5110000D02*
X12950000Y-5150000D01*
X12950000Y-6840000D02*
X12990000Y-6880000D01*
X12990000Y-6840000D02*
X12950000Y-6880000D01*
X13120000Y-6280000D02*
X13160000Y-6320000D01*
X13160000Y-6280000D02*
X13120000Y-6320000D01*
X13160000Y-7450000D02*
X13200000Y-7490000D01*
X13200000Y-7450000D02*
X13160000Y-7490000D01*
X13170000Y-9060000D02*
X13210000Y-9100000D01*
X13210000Y-9060000D02*
X13170000Y-9100000D01*
X13440000Y-8010000D02*
X13480000Y-8050000D01*
X13480000Y-8010000D02*
X13440000Y-8050000D01*
X13910000Y-10680000D02*
X13950000Y-10720000D01*
X13950000Y-10680000D02*
X13910000Y-10720000D01*
X14170000Y-8110000D02*
X14210000Y-8150000D01*
X14210000Y-8110000D02*
X14170000Y-8150000D01*
X14900000Y-9150000D02*
X14940000Y-9190000D01*
X14940000Y-9150000D02*
X14900000Y-9190000D01*
X14960000Y-6480000D02*
X15000000Y-6520000D01*
X15000000Y-6480000D02*
X14960000Y-6520000D01*
X14960000Y-6850000D02*
X15000000Y-6890000D01*
X15000000Y-6850000D02*
X14960000Y-6890000D01*
X15110000Y-9670000D02*
X15150000Y-9710000D01*
X15150000Y-9670000D02*
X15110000Y-9710000D01*
X15190000Y-7430000D02*
X15230000Y-7470000D01*
X15230000Y-7430000D02*
X15190000Y-7470000D01*
X15190000Y-9280000D02*
X15230000Y-9320000D01*
X15230000Y-9280000D02*
X15190000Y-9320000D01*
X15290000Y-6400000D02*
X15330000Y-6440000D01*
X15330000Y-6400000D02*
X15290000Y-6440000D01*
X15880000Y-6690000D02*
X15920000Y-6730000D01*
X15920000Y-6690000D02*
X15880000Y-6730000D01*
X15950000Y-6420000D02*
X15990000Y-6460000D01*
X15990000Y-6420000D02*
X15950000Y-6460000D01*
X16410000Y-6480000D02*
X16450000Y-6520000D01*
X16450000Y-6480000D02*
X16410000Y-6520000D01*
X16490000Y-7450000D02*
X16530000Y-7490000D01*
X16530000Y-7450000D02*
X16490000Y-7490000D01*
X16910000Y-9670000D02*
X16950000Y-9710000D01*
X16950000Y-9670000D02*
X16910000Y-9710000D01*
X16930000Y-8650000D02*
X16970000Y-8690000D01*
X16970000Y-8650000D02*
X16930000Y-8690000D01*
X16930000Y-9050000D02*
X16970000Y-9090000D01*
X16970000Y-9050000D02*
X16930000Y-9090000D01*
X16950000Y-8080000D02*
X16990000Y-8120000D01*
X16990000Y-8080000D02*
X16950000Y-8120000D01*
X17300000Y-6410000D02*
X17340000Y-6450000D01*
X17340000Y-6410000D02*
X17300000Y-6450000D01*
X17370000Y-6920000D02*
X17410000Y-6960000D01*
X17410000Y-6920000D02*
X17370000Y-6960000D01*
X17560000Y-7420000D02*
X17600000Y-7460000D01*
X17600000Y-7420000D02*
X17560000Y-7460000D01*
X17810000Y-6450000D02*
X17850000Y-6490000D01*
X17850000Y-6450000D02*
X17810000Y-6490000D01*
X17970000Y-7900000D02*
X18010000Y-7940000D01*
X18010000Y-7900000D02*
X17970000Y-7940000D01*
X18150000Y-10670000D02*
X18190000Y-10710000D01*
X18190000Y-10670000D02*
X18150000Y-10710000D01*
X18220050Y-6180000D02*
X18260050Y-6220000D01*
X18260050Y-6180000D02*
X18220050Y-6220000D01*
X18220050Y-6610000D02*
X18260050Y-6650000D01*
X18260050Y-6610000D02*
X18220050Y-6650000D01*
X18220050Y-6940000D02*
X18260050Y-6980000D01*
X18260050Y-6940000D02*
X18220050Y-6980000D01*
X18570659Y-5160417D02*
X18610659Y-5200417D01*
X18610659Y-5160417D02*
X18570659Y-5200417D01*
X18670000Y-7320000D02*
X18710000Y-7360000D01*
X18710000Y-7320000D02*
X18670000Y-7360000D01*
X18680000Y-6220000D02*
X18720000Y-6260000D01*
X18720000Y-6220000D02*
X18680000Y-6260000D01*
X18680000Y-6740000D02*
X18720000Y-6780000D01*
X18720000Y-6740000D02*
X18680000Y-6780000D01*
D12*
X11550000Y-10710000D02*
G75*
G03*
X11550000Y-10710000I-40000J0D01*
G01*
X11920000Y-10750000D02*
G75*
G03*
X11920000Y-10750000I-40000J0D01*
G01*
X12520000Y-6370000D02*
G75*
G03*
X12520000Y-6370000I-40000J0D01*
G01*
X12550000Y-9960050D02*
G75*
G03*
X12550000Y-9960050I-40000J0D01*
G01*
X15097500Y-7078000D02*
X15097500Y-7158000D01*
X15057500Y-7118000D02*
X15137500Y-7118000D01*
X15097500Y-7840000D02*
X15097500Y-7920000D01*
X15057500Y-7880000D02*
X15137500Y-7880000D01*
X15351500Y-7078000D02*
X15351500Y-7158000D01*
X15311500Y-7118000D02*
X15391500Y-7118000D01*
X15351500Y-7840000D02*
X15351500Y-7920000D01*
X15311500Y-7880000D02*
X15391500Y-7880000D01*
X15605500Y-7078000D02*
X15605500Y-7158000D01*
X15565500Y-7118000D02*
X15645500Y-7118000D01*
X15605500Y-7840000D02*
X15605500Y-7920000D01*
X15565500Y-7880000D02*
X15645500Y-7880000D01*
X15859500Y-7078000D02*
X15859500Y-7158000D01*
X15819500Y-7118000D02*
X15899500Y-7118000D01*
X15859500Y-7840000D02*
X15859500Y-7920000D01*
X15819500Y-7880000D02*
X15899500Y-7880000D01*
X16113500Y-7078000D02*
X16113500Y-7158000D01*
X16073500Y-7118000D02*
X16153500Y-7118000D01*
X16113500Y-7840000D02*
X16113500Y-7920000D01*
X16073500Y-7880000D02*
X16153500Y-7880000D01*
X16367500Y-7078000D02*
X16367500Y-7158000D01*
X16327500Y-7118000D02*
X16407500Y-7118000D01*
X16367500Y-7840000D02*
X16367500Y-7920000D01*
X16327500Y-7880000D02*
X16407500Y-7880000D01*
X16621500Y-7078000D02*
X16621500Y-7158000D01*
X16581500Y-7118000D02*
X16661500Y-7118000D01*
X16621500Y-7840000D02*
X16621500Y-7920000D01*
X16581500Y-7880000D02*
X16661500Y-7880000D01*
D13*
X10715356Y-10475356D02*
X10715356Y-10404644D01*
X10644644Y-10404644D01*
X10644644Y-10475356D01*
X10715356Y-10475356D01*
X10715356Y-10729356D02*
X10715356Y-10658644D01*
X10644644Y-10658644D01*
X10644644Y-10729356D01*
X10715356Y-10729356D01*
X10969356Y-10475356D02*
X10969356Y-10404644D01*
X10898644Y-10404644D01*
X10898644Y-10475356D01*
X10969356Y-10475356D01*
X10969356Y-10729356D02*
X10969356Y-10658644D01*
X10898644Y-10658644D01*
X10898644Y-10729356D01*
X10969356Y-10729356D01*
X13372356Y-5508356D02*
X13372356Y-5437644D01*
X13301644Y-5437644D01*
X13301644Y-5508356D01*
X13372356Y-5508356D01*
X13372356Y-5759356D02*
X13372356Y-5688644D01*
X13301644Y-5688644D01*
X13301644Y-5759356D01*
X13372356Y-5759356D01*
X13626356Y-5508356D02*
X13626356Y-5437644D01*
X13555644Y-5437644D01*
X13555644Y-5508356D01*
X13626356Y-5508356D01*
X13626356Y-5759356D02*
X13626356Y-5688644D01*
X13555644Y-5688644D01*
X13555644Y-5759356D01*
X13626356Y-5759356D01*
X13865356Y-9811356D02*
X13865356Y-9740644D01*
X13794644Y-9740644D01*
X13794644Y-9811356D01*
X13865356Y-9811356D01*
X13865356Y-10065356D02*
X13865356Y-9994644D01*
X13794644Y-9994644D01*
X13794644Y-10065356D01*
X13865356Y-10065356D01*
X13865356Y-10319356D02*
X13865356Y-10248644D01*
X13794644Y-10248644D01*
X13794644Y-10319356D01*
X13865356Y-10319356D01*
X13880356Y-5508356D02*
X13880356Y-5437644D01*
X13809644Y-5437644D01*
X13809644Y-5508356D01*
X13880356Y-5508356D01*
X13880356Y-5762356D02*
X13880356Y-5691644D01*
X13809644Y-5691644D01*
X13809644Y-5762356D01*
X13880356Y-5762356D01*
X14134356Y-5508356D02*
X14134356Y-5437644D01*
X14063644Y-5437644D01*
X14063644Y-5508356D01*
X14134356Y-5508356D01*
X14134356Y-5762356D02*
X14134356Y-5691644D01*
X14063644Y-5691644D01*
X14063644Y-5762356D01*
X14134356Y-5762356D01*
X14311606Y-10069356D02*
X14311606Y-9998644D01*
X14240894Y-9998644D01*
X14240894Y-10069356D01*
X14311606Y-10069356D01*
X14311606Y-10323356D02*
X14311606Y-10252644D01*
X14240894Y-10252644D01*
X14240894Y-10323356D01*
X14311606Y-10323356D01*
X14388356Y-5508356D02*
X14388356Y-5437644D01*
X14317644Y-5437644D01*
X14317644Y-5508356D01*
X14388356Y-5508356D01*
X14388356Y-5762356D02*
X14388356Y-5691644D01*
X14317644Y-5691644D01*
X14317644Y-5762356D01*
X14388356Y-5762356D01*
X14642356Y-5508356D02*
X14642356Y-5437644D01*
X14571644Y-5437644D01*
X14571644Y-5508356D01*
X14642356Y-5508356D01*
X14642356Y-5762356D02*
X14642356Y-5691644D01*
X14571644Y-5691644D01*
X14571644Y-5762356D01*
X14642356Y-5762356D01*
X14747856Y-9811356D02*
X14747856Y-9740644D01*
X14677144Y-9740644D01*
X14677144Y-9811356D01*
X14747856Y-9811356D01*
X14747856Y-10065356D02*
X14747856Y-9994644D01*
X14677144Y-9994644D01*
X14677144Y-10065356D01*
X14747856Y-10065356D01*
X14747856Y-10319356D02*
X14747856Y-10248644D01*
X14677144Y-10248644D01*
X14677144Y-10319356D01*
X14747856Y-10319356D01*
X14896356Y-5508356D02*
X14896356Y-5437644D01*
X14825644Y-5437644D01*
X14825644Y-5508356D01*
X14896356Y-5508356D01*
X14896356Y-5762356D02*
X14896356Y-5691644D01*
X14825644Y-5691644D01*
X14825644Y-5762356D01*
X14896356Y-5762356D01*
X15150356Y-5508356D02*
X15150356Y-5437644D01*
X15079644Y-5437644D01*
X15079644Y-5508356D01*
X15150356Y-5508356D01*
X15150356Y-5762356D02*
X15150356Y-5691644D01*
X15079644Y-5691644D01*
X15079644Y-5762356D01*
X15150356Y-5762356D01*
X15404356Y-5508356D02*
X15404356Y-5437644D01*
X15333644Y-5437644D01*
X15333644Y-5508356D01*
X15404356Y-5508356D01*
X15404356Y-5762356D02*
X15404356Y-5691644D01*
X15333644Y-5691644D01*
X15333644Y-5762356D01*
X15404356Y-5762356D01*
X15632856Y-9811356D02*
X15632856Y-9740644D01*
X15562144Y-9740644D01*
X15562144Y-9811356D01*
X15632856Y-9811356D01*
X15632856Y-10065356D02*
X15632856Y-9994644D01*
X15562144Y-9994644D01*
X15562144Y-10065356D01*
X15632856Y-10065356D01*
X15632856Y-10319356D02*
X15632856Y-10248644D01*
X15562144Y-10248644D01*
X15562144Y-10319356D01*
X15632856Y-10319356D01*
X15658356Y-5508356D02*
X15658356Y-5437644D01*
X15587644Y-5437644D01*
X15587644Y-5508356D01*
X15658356Y-5508356D01*
X15658356Y-5762356D02*
X15658356Y-5691644D01*
X15587644Y-5691644D01*
X15587644Y-5762356D01*
X15658356Y-5762356D01*
X15912356Y-5508356D02*
X15912356Y-5437644D01*
X15841644Y-5437644D01*
X15841644Y-5508356D01*
X15912356Y-5508356D01*
X15912356Y-5762356D02*
X15912356Y-5691644D01*
X15841644Y-5691644D01*
X15841644Y-5762356D01*
X15912356Y-5762356D01*
X16057856Y-10069356D02*
X16057856Y-9998644D01*
X15987144Y-9998644D01*
X15987144Y-10069356D01*
X16057856Y-10069356D01*
X16057856Y-10323356D02*
X16057856Y-10252644D01*
X15987144Y-10252644D01*
X15987144Y-10323356D01*
X16057856Y-10323356D01*
X16166356Y-5508356D02*
X16166356Y-5437644D01*
X16095644Y-5437644D01*
X16095644Y-5508356D01*
X16166356Y-5508356D01*
X16166356Y-5762356D02*
X16166356Y-5691644D01*
X16095644Y-5691644D01*
X16095644Y-5762356D01*
X16166356Y-5762356D01*
X16420356Y-5508356D02*
X16420356Y-5437644D01*
X16349644Y-5437644D01*
X16349644Y-5508356D01*
X16420356Y-5508356D01*
X16420356Y-5762356D02*
X16420356Y-5691644D01*
X16349644Y-5691644D01*
X16349644Y-5762356D01*
X16420356Y-5762356D01*
X16472856Y-9811356D02*
X16472856Y-9740644D01*
X16402144Y-9740644D01*
X16402144Y-9811356D01*
X16472856Y-9811356D01*
X16472856Y-10065356D02*
X16472856Y-9994644D01*
X16402144Y-9994644D01*
X16402144Y-10065356D01*
X16472856Y-10065356D01*
X16472856Y-10319356D02*
X16472856Y-10248644D01*
X16402144Y-10248644D01*
X16402144Y-10319356D01*
X16472856Y-10319356D01*
X16674356Y-5508356D02*
X16674356Y-5437644D01*
X16603644Y-5437644D01*
X16603644Y-5508356D01*
X16674356Y-5508356D01*
X16674356Y-5762356D02*
X16674356Y-5691644D01*
X16603644Y-5691644D01*
X16603644Y-5762356D01*
X16674356Y-5762356D01*
X16928356Y-5508356D02*
X16928356Y-5437644D01*
X16857644Y-5437644D01*
X16857644Y-5508356D01*
X16928356Y-5508356D01*
X16928356Y-5762356D02*
X16928356Y-5691644D01*
X16857644Y-5691644D01*
X16857644Y-5762356D01*
X16928356Y-5762356D01*
X17182356Y-5508356D02*
X17182356Y-5437644D01*
X17111644Y-5437644D01*
X17111644Y-5508356D01*
X17182356Y-5508356D01*
X17182356Y-5762356D02*
X17182356Y-5691644D01*
X17111644Y-5691644D01*
X17111644Y-5762356D01*
X17182356Y-5762356D01*
X17436356Y-5508356D02*
X17436356Y-5437644D01*
X17365644Y-5437644D01*
X17365644Y-5508356D01*
X17436356Y-5508356D01*
X17436356Y-5762356D02*
X17436356Y-5691644D01*
X17365644Y-5691644D01*
X17365644Y-5762356D01*
X17436356Y-5762356D01*
X17690356Y-5508356D02*
X17690356Y-5437644D01*
X17619644Y-5437644D01*
X17619644Y-5508356D01*
X17690356Y-5508356D01*
X17690356Y-5762356D02*
X17690356Y-5691644D01*
X17619644Y-5691644D01*
X17619644Y-5762356D01*
X17690356Y-5762356D01*
X17702856Y-9811356D02*
X17702856Y-9740644D01*
X17632144Y-9740644D01*
X17632144Y-9811356D01*
X17702856Y-9811356D01*
X17702856Y-10065356D02*
X17702856Y-9994644D01*
X17632144Y-9994644D01*
X17632144Y-10065356D01*
X17702856Y-10065356D01*
X17702856Y-10319356D02*
X17702856Y-10248644D01*
X17632144Y-10248644D01*
X17632144Y-10319356D01*
X17702856Y-10319356D01*
X17944356Y-5508356D02*
X17944356Y-5437644D01*
X17873644Y-5437644D01*
X17873644Y-5508356D01*
X17944356Y-5508356D01*
X17944356Y-5762356D02*
X17944356Y-5691644D01*
X17873644Y-5691644D01*
X17873644Y-5762356D01*
X17944356Y-5762356D01*
X18198356Y-5508356D02*
X18198356Y-5437644D01*
X18127644Y-5437644D01*
X18127644Y-5508356D01*
X18198356Y-5508356D01*
X18198356Y-5762356D02*
X18198356Y-5691644D01*
X18127644Y-5691644D01*
X18127644Y-5762356D01*
X18198356Y-5762356D01*
X18737856Y-8760356D02*
X18737856Y-8689644D01*
X18667144Y-8689644D01*
X18667144Y-8760356D01*
X18737856Y-8760356D01*
X18737856Y-9014356D02*
X18737856Y-8943644D01*
X18667144Y-8943644D01*
X18667144Y-9014356D01*
X18737856Y-9014356D01*
D14*
X11592500Y-5390000D02*
X11682500Y-5300000D01*
X11592500Y-5210000D01*
X11502500Y-5300000D01*
X11592500Y-5390000D01*
X11592500Y-5810000D02*
X11682500Y-5720000D01*
X11592500Y-5630000D01*
X11502500Y-5720000D01*
X11592500Y-5810000D01*
X11592500Y-6230000D02*
X11682500Y-6140000D01*
X11592500Y-6050000D01*
X11502500Y-6140000D01*
X11592500Y-6230000D01*
X11592500Y-6650000D02*
X11682500Y-6560000D01*
X11592500Y-6470000D01*
X11502500Y-6560000D01*
X11592500Y-6650000D01*
X11592500Y-7070000D02*
X11682500Y-6980000D01*
X11592500Y-6890000D01*
X11502500Y-6980000D01*
X11592500Y-7070000D01*
X11592500Y-7490000D02*
X11682500Y-7400000D01*
X11592500Y-7310000D01*
X11502500Y-7400000D01*
X11592500Y-7490000D01*
X11592500Y-7910000D02*
X11682500Y-7820000D01*
X11592500Y-7730000D01*
X11502500Y-7820000D01*
X11592500Y-7910000D01*
X11592500Y-8330000D02*
X11682500Y-8240000D01*
X11592500Y-8150000D01*
X11502500Y-8240000D01*
X11592500Y-8330000D01*
X11592500Y-8750000D02*
X11682500Y-8660000D01*
X11592500Y-8570000D01*
X11502500Y-8660000D01*
X11592500Y-8750000D01*
X11592500Y-9170000D02*
X11682500Y-9080000D01*
X11592500Y-8990000D01*
X11502500Y-9080000D01*
X11592500Y-9170000D01*
X11592500Y-9590000D02*
X11682500Y-9500000D01*
X11592500Y-9410000D01*
X11502500Y-9500000D01*
X11592500Y-9590000D01*
X11592500Y-10010000D02*
X11682500Y-9920000D01*
X11592500Y-9830000D01*
X11502500Y-9920000D01*
X11592500Y-10010000D01*
X12142500Y-5390000D02*
X12232500Y-5300000D01*
X12142500Y-5210000D01*
X12052500Y-5300000D01*
X12142500Y-5390000D01*
X12142500Y-5810000D02*
X12232500Y-5720000D01*
X12142500Y-5630000D01*
X12052500Y-5720000D01*
X12142500Y-5810000D01*
X12142500Y-6230000D02*
X12232500Y-6140000D01*
X12142500Y-6050000D01*
X12052500Y-6140000D01*
X12142500Y-6230000D01*
X12142500Y-6650000D02*
X12232500Y-6560000D01*
X12142500Y-6470000D01*
X12052500Y-6560000D01*
X12142500Y-6650000D01*
X12142500Y-7070000D02*
X12232500Y-6980000D01*
X12142500Y-6890000D01*
X12052500Y-6980000D01*
X12142500Y-7070000D01*
X12142500Y-7490000D02*
X12232500Y-7400000D01*
X12142500Y-7310000D01*
X12052500Y-7400000D01*
X12142500Y-7490000D01*
X12142500Y-7910000D02*
X12232500Y-7820000D01*
X12142500Y-7730000D01*
X12052500Y-7820000D01*
X12142500Y-7910000D01*
X12142500Y-8330000D02*
X12232500Y-8240000D01*
X12142500Y-8150000D01*
X12052500Y-8240000D01*
X12142500Y-8330000D01*
X12142500Y-8750000D02*
X12232500Y-8660000D01*
X12142500Y-8570000D01*
X12052500Y-8660000D01*
X12142500Y-8750000D01*
X12142500Y-9170000D02*
X12232500Y-9080000D01*
X12142500Y-8990000D01*
X12052500Y-9080000D01*
X12142500Y-9170000D01*
X12142500Y-9590000D02*
X12232500Y-9500000D01*
X12142500Y-9410000D01*
X12052500Y-9500000D01*
X12142500Y-9590000D01*
X12142500Y-10010000D02*
X12232500Y-9920000D01*
X12142500Y-9830000D01*
X12052500Y-9920000D01*
X12142500Y-10010000D01*
D10*
X10712619Y-11203476D02*
X10712619Y-11003476D01*
X10712619Y-11003476D02*
X10760238Y-11003476D01*
X10760238Y-11003476D02*
X10788810Y-11013000D01*
X10788810Y-11013000D02*
X10807857Y-11032048D01*
X10807857Y-11032048D02*
X10817381Y-11051095D01*
X10817381Y-11051095D02*
X10826905Y-11089190D01*
X10826905Y-11089190D02*
X10826905Y-11117762D01*
X10826905Y-11117762D02*
X10817381Y-11155857D01*
X10817381Y-11155857D02*
X10807857Y-11174905D01*
X10807857Y-11174905D02*
X10788810Y-11193952D01*
X10788810Y-11193952D02*
X10760238Y-11203476D01*
X10760238Y-11203476D02*
X10712619Y-11203476D01*
X10912619Y-11203476D02*
X10912619Y-11070143D01*
X10912619Y-11108238D02*
X10922143Y-11089190D01*
X10922143Y-11089190D02*
X10931667Y-11079667D01*
X10931667Y-11079667D02*
X10950714Y-11070143D01*
X10950714Y-11070143D02*
X10969762Y-11070143D01*
X11036429Y-11203476D02*
X11036429Y-11070143D01*
X11036429Y-11003476D02*
X11026905Y-11013000D01*
X11026905Y-11013000D02*
X11036429Y-11022524D01*
X11036429Y-11022524D02*
X11045952Y-11013000D01*
X11045952Y-11013000D02*
X11036429Y-11003476D01*
X11036429Y-11003476D02*
X11036429Y-11022524D01*
X11160238Y-11203476D02*
X11141190Y-11193952D01*
X11141190Y-11193952D02*
X11131667Y-11174905D01*
X11131667Y-11174905D02*
X11131667Y-11003476D01*
X11265000Y-11203476D02*
X11245952Y-11193952D01*
X11245952Y-11193952D02*
X11236428Y-11174905D01*
X11236428Y-11174905D02*
X11236428Y-11003476D01*
X11461190Y-11203476D02*
X11461190Y-11003476D01*
X11461190Y-11003476D02*
X11527857Y-11146333D01*
X11527857Y-11146333D02*
X11594524Y-11003476D01*
X11594524Y-11003476D02*
X11594524Y-11203476D01*
X11775476Y-11203476D02*
X11775476Y-11098714D01*
X11775476Y-11098714D02*
X11765952Y-11079667D01*
X11765952Y-11079667D02*
X11746905Y-11070143D01*
X11746905Y-11070143D02*
X11708809Y-11070143D01*
X11708809Y-11070143D02*
X11689762Y-11079667D01*
X11775476Y-11193952D02*
X11756428Y-11203476D01*
X11756428Y-11203476D02*
X11708809Y-11203476D01*
X11708809Y-11203476D02*
X11689762Y-11193952D01*
X11689762Y-11193952D02*
X11680238Y-11174905D01*
X11680238Y-11174905D02*
X11680238Y-11155857D01*
X11680238Y-11155857D02*
X11689762Y-11136810D01*
X11689762Y-11136810D02*
X11708809Y-11127286D01*
X11708809Y-11127286D02*
X11756428Y-11127286D01*
X11756428Y-11127286D02*
X11775476Y-11117762D01*
X11870714Y-11070143D02*
X11870714Y-11270143D01*
X11870714Y-11079667D02*
X11889762Y-11070143D01*
X11889762Y-11070143D02*
X11927857Y-11070143D01*
X11927857Y-11070143D02*
X11946905Y-11079667D01*
X11946905Y-11079667D02*
X11956428Y-11089190D01*
X11956428Y-11089190D02*
X11965952Y-11108238D01*
X11965952Y-11108238D02*
X11965952Y-11165381D01*
X11965952Y-11165381D02*
X11956428Y-11184429D01*
X11956428Y-11184429D02*
X11946905Y-11193952D01*
X11946905Y-11193952D02*
X11927857Y-11203476D01*
X11927857Y-11203476D02*
X11889762Y-11203476D01*
X11889762Y-11203476D02*
X11870714Y-11193952D01*
X12051667Y-11184429D02*
X12061190Y-11193952D01*
X12061190Y-11193952D02*
X12051667Y-11203476D01*
X12051667Y-11203476D02*
X12042143Y-11193952D01*
X12042143Y-11193952D02*
X12051667Y-11184429D01*
X12051667Y-11184429D02*
X12051667Y-11203476D01*
X12051667Y-11079667D02*
X12061190Y-11089190D01*
X12061190Y-11089190D02*
X12051667Y-11098714D01*
X12051667Y-11098714D02*
X12042143Y-11089190D01*
X12042143Y-11089190D02*
X12051667Y-11079667D01*
X12051667Y-11079667D02*
X12051667Y-11098714D01*
D11*
X10425000Y-11530000D02*
X10465000Y-11570000D01*
X10465000Y-11530000D02*
X10425000Y-11570000D01*
D10*
X10750714Y-11423476D02*
X10769762Y-11423476D01*
X10769762Y-11423476D02*
X10788810Y-11433000D01*
X10788810Y-11433000D02*
X10798333Y-11442524D01*
X10798333Y-11442524D02*
X10807857Y-11461571D01*
X10807857Y-11461571D02*
X10817381Y-11499667D01*
X10817381Y-11499667D02*
X10817381Y-11547286D01*
X10817381Y-11547286D02*
X10807857Y-11585381D01*
X10807857Y-11585381D02*
X10798333Y-11604428D01*
X10798333Y-11604428D02*
X10788810Y-11613952D01*
X10788810Y-11613952D02*
X10769762Y-11623476D01*
X10769762Y-11623476D02*
X10750714Y-11623476D01*
X10750714Y-11623476D02*
X10731667Y-11613952D01*
X10731667Y-11613952D02*
X10722143Y-11604428D01*
X10722143Y-11604428D02*
X10712619Y-11585381D01*
X10712619Y-11585381D02*
X10703095Y-11547286D01*
X10703095Y-11547286D02*
X10703095Y-11499667D01*
X10703095Y-11499667D02*
X10712619Y-11461571D01*
X10712619Y-11461571D02*
X10722143Y-11442524D01*
X10722143Y-11442524D02*
X10731667Y-11433000D01*
X10731667Y-11433000D02*
X10750714Y-11423476D01*
X10903095Y-11604428D02*
X10912619Y-11613952D01*
X10912619Y-11613952D02*
X10903095Y-11623476D01*
X10903095Y-11623476D02*
X10893571Y-11613952D01*
X10893571Y-11613952D02*
X10903095Y-11604428D01*
X10903095Y-11604428D02*
X10903095Y-11623476D01*
X11084048Y-11490143D02*
X11084048Y-11623476D01*
X11036429Y-11413952D02*
X10988810Y-11556809D01*
X10988810Y-11556809D02*
X11112619Y-11556809D01*
X11226905Y-11423476D02*
X11245952Y-11423476D01*
X11245952Y-11423476D02*
X11265000Y-11433000D01*
X11265000Y-11433000D02*
X11274524Y-11442524D01*
X11274524Y-11442524D02*
X11284048Y-11461571D01*
X11284048Y-11461571D02*
X11293571Y-11499667D01*
X11293571Y-11499667D02*
X11293571Y-11547286D01*
X11293571Y-11547286D02*
X11284048Y-11585381D01*
X11284048Y-11585381D02*
X11274524Y-11604428D01*
X11274524Y-11604428D02*
X11265000Y-11613952D01*
X11265000Y-11613952D02*
X11245952Y-11623476D01*
X11245952Y-11623476D02*
X11226905Y-11623476D01*
X11226905Y-11623476D02*
X11207857Y-11613952D01*
X11207857Y-11613952D02*
X11198333Y-11604428D01*
X11198333Y-11604428D02*
X11188809Y-11585381D01*
X11188809Y-11585381D02*
X11179286Y-11547286D01*
X11179286Y-11547286D02*
X11179286Y-11499667D01*
X11179286Y-11499667D02*
X11188809Y-11461571D01*
X11188809Y-11461571D02*
X11198333Y-11442524D01*
X11198333Y-11442524D02*
X11207857Y-11433000D01*
X11207857Y-11433000D02*
X11226905Y-11423476D01*
X11417381Y-11423476D02*
X11436429Y-11423476D01*
X11436429Y-11423476D02*
X11455476Y-11433000D01*
X11455476Y-11433000D02*
X11465000Y-11442524D01*
X11465000Y-11442524D02*
X11474524Y-11461571D01*
X11474524Y-11461571D02*
X11484048Y-11499667D01*
X11484048Y-11499667D02*
X11484048Y-11547286D01*
X11484048Y-11547286D02*
X11474524Y-11585381D01*
X11474524Y-11585381D02*
X11465000Y-11604428D01*
X11465000Y-11604428D02*
X11455476Y-11613952D01*
X11455476Y-11613952D02*
X11436429Y-11623476D01*
X11436429Y-11623476D02*
X11417381Y-11623476D01*
X11417381Y-11623476D02*
X11398333Y-11613952D01*
X11398333Y-11613952D02*
X11388809Y-11604428D01*
X11388809Y-11604428D02*
X11379286Y-11585381D01*
X11379286Y-11585381D02*
X11369762Y-11547286D01*
X11369762Y-11547286D02*
X11369762Y-11499667D01*
X11369762Y-11499667D02*
X11379286Y-11461571D01*
X11379286Y-11461571D02*
X11388809Y-11442524D01*
X11388809Y-11442524D02*
X11398333Y-11433000D01*
X11398333Y-11433000D02*
X11417381Y-11423476D01*
X11569762Y-11623476D02*
X11569762Y-11490143D01*
X11569762Y-11509190D02*
X11579286Y-11499667D01*
X11579286Y-11499667D02*
X11598333Y-11490143D01*
X11598333Y-11490143D02*
X11626905Y-11490143D01*
X11626905Y-11490143D02*
X11645952Y-11499667D01*
X11645952Y-11499667D02*
X11655476Y-11518714D01*
X11655476Y-11518714D02*
X11655476Y-11623476D01*
X11655476Y-11518714D02*
X11665000Y-11499667D01*
X11665000Y-11499667D02*
X11684048Y-11490143D01*
X11684048Y-11490143D02*
X11712619Y-11490143D01*
X11712619Y-11490143D02*
X11731667Y-11499667D01*
X11731667Y-11499667D02*
X11741190Y-11518714D01*
X11741190Y-11518714D02*
X11741190Y-11623476D01*
X11836429Y-11623476D02*
X11836429Y-11490143D01*
X11836429Y-11509190D02*
X11845952Y-11499667D01*
X11845952Y-11499667D02*
X11865000Y-11490143D01*
X11865000Y-11490143D02*
X11893571Y-11490143D01*
X11893571Y-11490143D02*
X11912619Y-11499667D01*
X11912619Y-11499667D02*
X11922143Y-11518714D01*
X11922143Y-11518714D02*
X11922143Y-11623476D01*
X11922143Y-11518714D02*
X11931667Y-11499667D01*
X11931667Y-11499667D02*
X11950714Y-11490143D01*
X11950714Y-11490143D02*
X11979286Y-11490143D01*
X11979286Y-11490143D02*
X11998333Y-11499667D01*
X11998333Y-11499667D02*
X12007857Y-11518714D01*
X12007857Y-11518714D02*
X12007857Y-11623476D01*
X12365952Y-11413952D02*
X12194524Y-11671095D01*
X12590714Y-11423476D02*
X12609762Y-11423476D01*
X12609762Y-11423476D02*
X12628810Y-11433000D01*
X12628810Y-11433000D02*
X12638333Y-11442524D01*
X12638333Y-11442524D02*
X12647857Y-11461571D01*
X12647857Y-11461571D02*
X12657381Y-11499667D01*
X12657381Y-11499667D02*
X12657381Y-11547286D01*
X12657381Y-11547286D02*
X12647857Y-11585381D01*
X12647857Y-11585381D02*
X12638333Y-11604428D01*
X12638333Y-11604428D02*
X12628810Y-11613952D01*
X12628810Y-11613952D02*
X12609762Y-11623476D01*
X12609762Y-11623476D02*
X12590714Y-11623476D01*
X12590714Y-11623476D02*
X12571667Y-11613952D01*
X12571667Y-11613952D02*
X12562143Y-11604428D01*
X12562143Y-11604428D02*
X12552619Y-11585381D01*
X12552619Y-11585381D02*
X12543095Y-11547286D01*
X12543095Y-11547286D02*
X12543095Y-11499667D01*
X12543095Y-11499667D02*
X12552619Y-11461571D01*
X12552619Y-11461571D02*
X12562143Y-11442524D01*
X12562143Y-11442524D02*
X12571667Y-11433000D01*
X12571667Y-11433000D02*
X12590714Y-11423476D01*
X12743095Y-11604428D02*
X12752619Y-11613952D01*
X12752619Y-11613952D02*
X12743095Y-11623476D01*
X12743095Y-11623476D02*
X12733571Y-11613952D01*
X12733571Y-11613952D02*
X12743095Y-11604428D01*
X12743095Y-11604428D02*
X12743095Y-11623476D01*
X12876429Y-11423476D02*
X12895476Y-11423476D01*
X12895476Y-11423476D02*
X12914524Y-11433000D01*
X12914524Y-11433000D02*
X12924048Y-11442524D01*
X12924048Y-11442524D02*
X12933571Y-11461571D01*
X12933571Y-11461571D02*
X12943095Y-11499667D01*
X12943095Y-11499667D02*
X12943095Y-11547286D01*
X12943095Y-11547286D02*
X12933571Y-11585381D01*
X12933571Y-11585381D02*
X12924048Y-11604428D01*
X12924048Y-11604428D02*
X12914524Y-11613952D01*
X12914524Y-11613952D02*
X12895476Y-11623476D01*
X12895476Y-11623476D02*
X12876429Y-11623476D01*
X12876429Y-11623476D02*
X12857381Y-11613952D01*
X12857381Y-11613952D02*
X12847857Y-11604428D01*
X12847857Y-11604428D02*
X12838333Y-11585381D01*
X12838333Y-11585381D02*
X12828810Y-11547286D01*
X12828810Y-11547286D02*
X12828810Y-11499667D01*
X12828810Y-11499667D02*
X12838333Y-11461571D01*
X12838333Y-11461571D02*
X12847857Y-11442524D01*
X12847857Y-11442524D02*
X12857381Y-11433000D01*
X12857381Y-11433000D02*
X12876429Y-11423476D01*
X13133571Y-11623476D02*
X13019286Y-11623476D01*
X13076429Y-11623476D02*
X13076429Y-11423476D01*
X13076429Y-11423476D02*
X13057381Y-11452048D01*
X13057381Y-11452048D02*
X13038333Y-11471095D01*
X13038333Y-11471095D02*
X13019286Y-11480619D01*
X13314524Y-11423476D02*
X13219286Y-11423476D01*
X13219286Y-11423476D02*
X13209762Y-11518714D01*
X13209762Y-11518714D02*
X13219286Y-11509190D01*
X13219286Y-11509190D02*
X13238333Y-11499667D01*
X13238333Y-11499667D02*
X13285952Y-11499667D01*
X13285952Y-11499667D02*
X13305000Y-11509190D01*
X13305000Y-11509190D02*
X13314524Y-11518714D01*
X13314524Y-11518714D02*
X13324048Y-11537762D01*
X13324048Y-11537762D02*
X13324048Y-11585381D01*
X13324048Y-11585381D02*
X13314524Y-11604428D01*
X13314524Y-11604428D02*
X13305000Y-11613952D01*
X13305000Y-11613952D02*
X13285952Y-11623476D01*
X13285952Y-11623476D02*
X13238333Y-11623476D01*
X13238333Y-11623476D02*
X13219286Y-11613952D01*
X13219286Y-11613952D02*
X13209762Y-11604428D01*
X13390714Y-11423476D02*
X13524048Y-11423476D01*
X13524048Y-11423476D02*
X13438333Y-11623476D01*
X13590714Y-11423476D02*
X13590714Y-11461571D01*
X13666905Y-11423476D02*
X13666905Y-11461571D01*
X13929762Y-11699667D02*
X13920238Y-11690143D01*
X13920238Y-11690143D02*
X13901191Y-11661571D01*
X13901191Y-11661571D02*
X13891667Y-11642524D01*
X13891667Y-11642524D02*
X13882143Y-11613952D01*
X13882143Y-11613952D02*
X13872619Y-11566333D01*
X13872619Y-11566333D02*
X13872619Y-11528238D01*
X13872619Y-11528238D02*
X13882143Y-11480619D01*
X13882143Y-11480619D02*
X13891667Y-11452048D01*
X13891667Y-11452048D02*
X13901191Y-11433000D01*
X13901191Y-11433000D02*
X13920238Y-11404428D01*
X13920238Y-11404428D02*
X13929762Y-11394905D01*
X14091667Y-11490143D02*
X14091667Y-11623476D01*
X14044048Y-11413952D02*
X13996429Y-11556809D01*
X13996429Y-11556809D02*
X14120238Y-11556809D01*
X14225000Y-11509190D02*
X14205952Y-11499667D01*
X14205952Y-11499667D02*
X14196429Y-11490143D01*
X14196429Y-11490143D02*
X14186905Y-11471095D01*
X14186905Y-11471095D02*
X14186905Y-11461571D01*
X14186905Y-11461571D02*
X14196429Y-11442524D01*
X14196429Y-11442524D02*
X14205952Y-11433000D01*
X14205952Y-11433000D02*
X14225000Y-11423476D01*
X14225000Y-11423476D02*
X14263095Y-11423476D01*
X14263095Y-11423476D02*
X14282143Y-11433000D01*
X14282143Y-11433000D02*
X14291667Y-11442524D01*
X14291667Y-11442524D02*
X14301191Y-11461571D01*
X14301191Y-11461571D02*
X14301191Y-11471095D01*
X14301191Y-11471095D02*
X14291667Y-11490143D01*
X14291667Y-11490143D02*
X14282143Y-11499667D01*
X14282143Y-11499667D02*
X14263095Y-11509190D01*
X14263095Y-11509190D02*
X14225000Y-11509190D01*
X14225000Y-11509190D02*
X14205952Y-11518714D01*
X14205952Y-11518714D02*
X14196429Y-11528238D01*
X14196429Y-11528238D02*
X14186905Y-11547286D01*
X14186905Y-11547286D02*
X14186905Y-11585381D01*
X14186905Y-11585381D02*
X14196429Y-11604428D01*
X14196429Y-11604428D02*
X14205952Y-11613952D01*
X14205952Y-11613952D02*
X14225000Y-11623476D01*
X14225000Y-11623476D02*
X14263095Y-11623476D01*
X14263095Y-11623476D02*
X14282143Y-11613952D01*
X14282143Y-11613952D02*
X14291667Y-11604428D01*
X14291667Y-11604428D02*
X14301191Y-11585381D01*
X14301191Y-11585381D02*
X14301191Y-11547286D01*
X14301191Y-11547286D02*
X14291667Y-11528238D01*
X14291667Y-11528238D02*
X14282143Y-11518714D01*
X14282143Y-11518714D02*
X14263095Y-11509190D01*
X14506905Y-11623476D02*
X14506905Y-11423476D01*
X14592619Y-11623476D02*
X14592619Y-11518714D01*
X14592619Y-11518714D02*
X14583095Y-11499667D01*
X14583095Y-11499667D02*
X14564048Y-11490143D01*
X14564048Y-11490143D02*
X14535476Y-11490143D01*
X14535476Y-11490143D02*
X14516429Y-11499667D01*
X14516429Y-11499667D02*
X14506905Y-11509190D01*
X14716429Y-11623476D02*
X14697381Y-11613952D01*
X14697381Y-11613952D02*
X14687857Y-11604428D01*
X14687857Y-11604428D02*
X14678333Y-11585381D01*
X14678333Y-11585381D02*
X14678333Y-11528238D01*
X14678333Y-11528238D02*
X14687857Y-11509190D01*
X14687857Y-11509190D02*
X14697381Y-11499667D01*
X14697381Y-11499667D02*
X14716429Y-11490143D01*
X14716429Y-11490143D02*
X14745000Y-11490143D01*
X14745000Y-11490143D02*
X14764048Y-11499667D01*
X14764048Y-11499667D02*
X14773572Y-11509190D01*
X14773572Y-11509190D02*
X14783095Y-11528238D01*
X14783095Y-11528238D02*
X14783095Y-11585381D01*
X14783095Y-11585381D02*
X14773572Y-11604428D01*
X14773572Y-11604428D02*
X14764048Y-11613952D01*
X14764048Y-11613952D02*
X14745000Y-11623476D01*
X14745000Y-11623476D02*
X14716429Y-11623476D01*
X14897381Y-11623476D02*
X14878333Y-11613952D01*
X14878333Y-11613952D02*
X14868810Y-11594905D01*
X14868810Y-11594905D02*
X14868810Y-11423476D01*
X15049762Y-11613952D02*
X15030714Y-11623476D01*
X15030714Y-11623476D02*
X14992619Y-11623476D01*
X14992619Y-11623476D02*
X14973572Y-11613952D01*
X14973572Y-11613952D02*
X14964048Y-11594905D01*
X14964048Y-11594905D02*
X14964048Y-11518714D01*
X14964048Y-11518714D02*
X14973572Y-11499667D01*
X14973572Y-11499667D02*
X14992619Y-11490143D01*
X14992619Y-11490143D02*
X15030714Y-11490143D01*
X15030714Y-11490143D02*
X15049762Y-11499667D01*
X15049762Y-11499667D02*
X15059286Y-11518714D01*
X15059286Y-11518714D02*
X15059286Y-11537762D01*
X15059286Y-11537762D02*
X14964048Y-11556809D01*
X15135476Y-11613952D02*
X15154524Y-11623476D01*
X15154524Y-11623476D02*
X15192619Y-11623476D01*
X15192619Y-11623476D02*
X15211667Y-11613952D01*
X15211667Y-11613952D02*
X15221191Y-11594905D01*
X15221191Y-11594905D02*
X15221191Y-11585381D01*
X15221191Y-11585381D02*
X15211667Y-11566333D01*
X15211667Y-11566333D02*
X15192619Y-11556809D01*
X15192619Y-11556809D02*
X15164048Y-11556809D01*
X15164048Y-11556809D02*
X15145000Y-11547286D01*
X15145000Y-11547286D02*
X15135476Y-11528238D01*
X15135476Y-11528238D02*
X15135476Y-11518714D01*
X15135476Y-11518714D02*
X15145000Y-11499667D01*
X15145000Y-11499667D02*
X15164048Y-11490143D01*
X15164048Y-11490143D02*
X15192619Y-11490143D01*
X15192619Y-11490143D02*
X15211667Y-11499667D01*
X15287857Y-11699667D02*
X15297381Y-11690143D01*
X15297381Y-11690143D02*
X15316429Y-11661571D01*
X15316429Y-11661571D02*
X15325953Y-11642524D01*
X15325953Y-11642524D02*
X15335476Y-11613952D01*
X15335476Y-11613952D02*
X15345000Y-11566333D01*
X15345000Y-11566333D02*
X15345000Y-11528238D01*
X15345000Y-11528238D02*
X15335476Y-11480619D01*
X15335476Y-11480619D02*
X15325953Y-11452048D01*
X15325953Y-11452048D02*
X15316429Y-11433000D01*
X15316429Y-11433000D02*
X15297381Y-11404428D01*
X15297381Y-11404428D02*
X15287857Y-11394905D01*
D12*
X10465000Y-11814000D02*
G75*
G03*
X10465000Y-11814000I-40000J0D01*
G01*
D10*
X10750714Y-11687476D02*
X10769762Y-11687476D01*
X10769762Y-11687476D02*
X10788810Y-11697000D01*
X10788810Y-11697000D02*
X10798333Y-11706524D01*
X10798333Y-11706524D02*
X10807857Y-11725571D01*
X10807857Y-11725571D02*
X10817381Y-11763667D01*
X10817381Y-11763667D02*
X10817381Y-11811286D01*
X10817381Y-11811286D02*
X10807857Y-11849381D01*
X10807857Y-11849381D02*
X10798333Y-11868428D01*
X10798333Y-11868428D02*
X10788810Y-11877952D01*
X10788810Y-11877952D02*
X10769762Y-11887476D01*
X10769762Y-11887476D02*
X10750714Y-11887476D01*
X10750714Y-11887476D02*
X10731667Y-11877952D01*
X10731667Y-11877952D02*
X10722143Y-11868428D01*
X10722143Y-11868428D02*
X10712619Y-11849381D01*
X10712619Y-11849381D02*
X10703095Y-11811286D01*
X10703095Y-11811286D02*
X10703095Y-11763667D01*
X10703095Y-11763667D02*
X10712619Y-11725571D01*
X10712619Y-11725571D02*
X10722143Y-11706524D01*
X10722143Y-11706524D02*
X10731667Y-11697000D01*
X10731667Y-11697000D02*
X10750714Y-11687476D01*
X10903095Y-11868428D02*
X10912619Y-11877952D01*
X10912619Y-11877952D02*
X10903095Y-11887476D01*
X10903095Y-11887476D02*
X10893571Y-11877952D01*
X10893571Y-11877952D02*
X10903095Y-11868428D01*
X10903095Y-11868428D02*
X10903095Y-11887476D01*
X11026905Y-11773190D02*
X11007857Y-11763667D01*
X11007857Y-11763667D02*
X10998333Y-11754143D01*
X10998333Y-11754143D02*
X10988810Y-11735095D01*
X10988810Y-11735095D02*
X10988810Y-11725571D01*
X10988810Y-11725571D02*
X10998333Y-11706524D01*
X10998333Y-11706524D02*
X11007857Y-11697000D01*
X11007857Y-11697000D02*
X11026905Y-11687476D01*
X11026905Y-11687476D02*
X11065000Y-11687476D01*
X11065000Y-11687476D02*
X11084048Y-11697000D01*
X11084048Y-11697000D02*
X11093571Y-11706524D01*
X11093571Y-11706524D02*
X11103095Y-11725571D01*
X11103095Y-11725571D02*
X11103095Y-11735095D01*
X11103095Y-11735095D02*
X11093571Y-11754143D01*
X11093571Y-11754143D02*
X11084048Y-11763667D01*
X11084048Y-11763667D02*
X11065000Y-11773190D01*
X11065000Y-11773190D02*
X11026905Y-11773190D01*
X11026905Y-11773190D02*
X11007857Y-11782714D01*
X11007857Y-11782714D02*
X10998333Y-11792238D01*
X10998333Y-11792238D02*
X10988810Y-11811286D01*
X10988810Y-11811286D02*
X10988810Y-11849381D01*
X10988810Y-11849381D02*
X10998333Y-11868428D01*
X10998333Y-11868428D02*
X11007857Y-11877952D01*
X11007857Y-11877952D02*
X11026905Y-11887476D01*
X11026905Y-11887476D02*
X11065000Y-11887476D01*
X11065000Y-11887476D02*
X11084048Y-11877952D01*
X11084048Y-11877952D02*
X11093571Y-11868428D01*
X11093571Y-11868428D02*
X11103095Y-11849381D01*
X11103095Y-11849381D02*
X11103095Y-11811286D01*
X11103095Y-11811286D02*
X11093571Y-11792238D01*
X11093571Y-11792238D02*
X11084048Y-11782714D01*
X11084048Y-11782714D02*
X11065000Y-11773190D01*
X11226905Y-11687476D02*
X11245952Y-11687476D01*
X11245952Y-11687476D02*
X11265000Y-11697000D01*
X11265000Y-11697000D02*
X11274524Y-11706524D01*
X11274524Y-11706524D02*
X11284048Y-11725571D01*
X11284048Y-11725571D02*
X11293571Y-11763667D01*
X11293571Y-11763667D02*
X11293571Y-11811286D01*
X11293571Y-11811286D02*
X11284048Y-11849381D01*
X11284048Y-11849381D02*
X11274524Y-11868428D01*
X11274524Y-11868428D02*
X11265000Y-11877952D01*
X11265000Y-11877952D02*
X11245952Y-11887476D01*
X11245952Y-11887476D02*
X11226905Y-11887476D01*
X11226905Y-11887476D02*
X11207857Y-11877952D01*
X11207857Y-11877952D02*
X11198333Y-11868428D01*
X11198333Y-11868428D02*
X11188809Y-11849381D01*
X11188809Y-11849381D02*
X11179286Y-11811286D01*
X11179286Y-11811286D02*
X11179286Y-11763667D01*
X11179286Y-11763667D02*
X11188809Y-11725571D01*
X11188809Y-11725571D02*
X11198333Y-11706524D01*
X11198333Y-11706524D02*
X11207857Y-11697000D01*
X11207857Y-11697000D02*
X11226905Y-11687476D01*
X11417381Y-11687476D02*
X11436429Y-11687476D01*
X11436429Y-11687476D02*
X11455476Y-11697000D01*
X11455476Y-11697000D02*
X11465000Y-11706524D01*
X11465000Y-11706524D02*
X11474524Y-11725571D01*
X11474524Y-11725571D02*
X11484048Y-11763667D01*
X11484048Y-11763667D02*
X11484048Y-11811286D01*
X11484048Y-11811286D02*
X11474524Y-11849381D01*
X11474524Y-11849381D02*
X11465000Y-11868428D01*
X11465000Y-11868428D02*
X11455476Y-11877952D01*
X11455476Y-11877952D02*
X11436429Y-11887476D01*
X11436429Y-11887476D02*
X11417381Y-11887476D01*
X11417381Y-11887476D02*
X11398333Y-11877952D01*
X11398333Y-11877952D02*
X11388809Y-11868428D01*
X11388809Y-11868428D02*
X11379286Y-11849381D01*
X11379286Y-11849381D02*
X11369762Y-11811286D01*
X11369762Y-11811286D02*
X11369762Y-11763667D01*
X11369762Y-11763667D02*
X11379286Y-11725571D01*
X11379286Y-11725571D02*
X11388809Y-11706524D01*
X11388809Y-11706524D02*
X11398333Y-11697000D01*
X11398333Y-11697000D02*
X11417381Y-11687476D01*
X11569762Y-11887476D02*
X11569762Y-11754143D01*
X11569762Y-11773190D02*
X11579286Y-11763667D01*
X11579286Y-11763667D02*
X11598333Y-11754143D01*
X11598333Y-11754143D02*
X11626905Y-11754143D01*
X11626905Y-11754143D02*
X11645952Y-11763667D01*
X11645952Y-11763667D02*
X11655476Y-11782714D01*
X11655476Y-11782714D02*
X11655476Y-11887476D01*
X11655476Y-11782714D02*
X11665000Y-11763667D01*
X11665000Y-11763667D02*
X11684048Y-11754143D01*
X11684048Y-11754143D02*
X11712619Y-11754143D01*
X11712619Y-11754143D02*
X11731667Y-11763667D01*
X11731667Y-11763667D02*
X11741190Y-11782714D01*
X11741190Y-11782714D02*
X11741190Y-11887476D01*
X11836429Y-11887476D02*
X11836429Y-11754143D01*
X11836429Y-11773190D02*
X11845952Y-11763667D01*
X11845952Y-11763667D02*
X11865000Y-11754143D01*
X11865000Y-11754143D02*
X11893571Y-11754143D01*
X11893571Y-11754143D02*
X11912619Y-11763667D01*
X11912619Y-11763667D02*
X11922143Y-11782714D01*
X11922143Y-11782714D02*
X11922143Y-11887476D01*
X11922143Y-11782714D02*
X11931667Y-11763667D01*
X11931667Y-11763667D02*
X11950714Y-11754143D01*
X11950714Y-11754143D02*
X11979286Y-11754143D01*
X11979286Y-11754143D02*
X11998333Y-11763667D01*
X11998333Y-11763667D02*
X12007857Y-11782714D01*
X12007857Y-11782714D02*
X12007857Y-11887476D01*
X12365952Y-11677952D02*
X12194524Y-11935095D01*
X12590714Y-11687476D02*
X12609762Y-11687476D01*
X12609762Y-11687476D02*
X12628810Y-11697000D01*
X12628810Y-11697000D02*
X12638333Y-11706524D01*
X12638333Y-11706524D02*
X12647857Y-11725571D01*
X12647857Y-11725571D02*
X12657381Y-11763667D01*
X12657381Y-11763667D02*
X12657381Y-11811286D01*
X12657381Y-11811286D02*
X12647857Y-11849381D01*
X12647857Y-11849381D02*
X12638333Y-11868428D01*
X12638333Y-11868428D02*
X12628810Y-11877952D01*
X12628810Y-11877952D02*
X12609762Y-11887476D01*
X12609762Y-11887476D02*
X12590714Y-11887476D01*
X12590714Y-11887476D02*
X12571667Y-11877952D01*
X12571667Y-11877952D02*
X12562143Y-11868428D01*
X12562143Y-11868428D02*
X12552619Y-11849381D01*
X12552619Y-11849381D02*
X12543095Y-11811286D01*
X12543095Y-11811286D02*
X12543095Y-11763667D01*
X12543095Y-11763667D02*
X12552619Y-11725571D01*
X12552619Y-11725571D02*
X12562143Y-11706524D01*
X12562143Y-11706524D02*
X12571667Y-11697000D01*
X12571667Y-11697000D02*
X12590714Y-11687476D01*
X12743095Y-11868428D02*
X12752619Y-11877952D01*
X12752619Y-11877952D02*
X12743095Y-11887476D01*
X12743095Y-11887476D02*
X12733571Y-11877952D01*
X12733571Y-11877952D02*
X12743095Y-11868428D01*
X12743095Y-11868428D02*
X12743095Y-11887476D01*
X12876429Y-11687476D02*
X12895476Y-11687476D01*
X12895476Y-11687476D02*
X12914524Y-11697000D01*
X12914524Y-11697000D02*
X12924048Y-11706524D01*
X12924048Y-11706524D02*
X12933571Y-11725571D01*
X12933571Y-11725571D02*
X12943095Y-11763667D01*
X12943095Y-11763667D02*
X12943095Y-11811286D01*
X12943095Y-11811286D02*
X12933571Y-11849381D01*
X12933571Y-11849381D02*
X12924048Y-11868428D01*
X12924048Y-11868428D02*
X12914524Y-11877952D01*
X12914524Y-11877952D02*
X12895476Y-11887476D01*
X12895476Y-11887476D02*
X12876429Y-11887476D01*
X12876429Y-11887476D02*
X12857381Y-11877952D01*
X12857381Y-11877952D02*
X12847857Y-11868428D01*
X12847857Y-11868428D02*
X12838333Y-11849381D01*
X12838333Y-11849381D02*
X12828810Y-11811286D01*
X12828810Y-11811286D02*
X12828810Y-11763667D01*
X12828810Y-11763667D02*
X12838333Y-11725571D01*
X12838333Y-11725571D02*
X12847857Y-11706524D01*
X12847857Y-11706524D02*
X12857381Y-11697000D01*
X12857381Y-11697000D02*
X12876429Y-11687476D01*
X13009762Y-11687476D02*
X13133571Y-11687476D01*
X13133571Y-11687476D02*
X13066905Y-11763667D01*
X13066905Y-11763667D02*
X13095476Y-11763667D01*
X13095476Y-11763667D02*
X13114524Y-11773190D01*
X13114524Y-11773190D02*
X13124048Y-11782714D01*
X13124048Y-11782714D02*
X13133571Y-11801762D01*
X13133571Y-11801762D02*
X13133571Y-11849381D01*
X13133571Y-11849381D02*
X13124048Y-11868428D01*
X13124048Y-11868428D02*
X13114524Y-11877952D01*
X13114524Y-11877952D02*
X13095476Y-11887476D01*
X13095476Y-11887476D02*
X13038333Y-11887476D01*
X13038333Y-11887476D02*
X13019286Y-11877952D01*
X13019286Y-11877952D02*
X13009762Y-11868428D01*
X13324048Y-11887476D02*
X13209762Y-11887476D01*
X13266905Y-11887476D02*
X13266905Y-11687476D01*
X13266905Y-11687476D02*
X13247857Y-11716048D01*
X13247857Y-11716048D02*
X13228810Y-11735095D01*
X13228810Y-11735095D02*
X13209762Y-11744619D01*
X13505000Y-11687476D02*
X13409762Y-11687476D01*
X13409762Y-11687476D02*
X13400238Y-11782714D01*
X13400238Y-11782714D02*
X13409762Y-11773190D01*
X13409762Y-11773190D02*
X13428810Y-11763667D01*
X13428810Y-11763667D02*
X13476429Y-11763667D01*
X13476429Y-11763667D02*
X13495476Y-11773190D01*
X13495476Y-11773190D02*
X13505000Y-11782714D01*
X13505000Y-11782714D02*
X13514524Y-11801762D01*
X13514524Y-11801762D02*
X13514524Y-11849381D01*
X13514524Y-11849381D02*
X13505000Y-11868428D01*
X13505000Y-11868428D02*
X13495476Y-11877952D01*
X13495476Y-11877952D02*
X13476429Y-11887476D01*
X13476429Y-11887476D02*
X13428810Y-11887476D01*
X13428810Y-11887476D02*
X13409762Y-11877952D01*
X13409762Y-11877952D02*
X13400238Y-11868428D01*
X13590714Y-11687476D02*
X13590714Y-11725571D01*
X13666905Y-11687476D02*
X13666905Y-11725571D01*
X13929762Y-11963667D02*
X13920238Y-11954143D01*
X13920238Y-11954143D02*
X13901191Y-11925571D01*
X13901191Y-11925571D02*
X13891667Y-11906524D01*
X13891667Y-11906524D02*
X13882143Y-11877952D01*
X13882143Y-11877952D02*
X13872619Y-11830333D01*
X13872619Y-11830333D02*
X13872619Y-11792238D01*
X13872619Y-11792238D02*
X13882143Y-11744619D01*
X13882143Y-11744619D02*
X13891667Y-11716048D01*
X13891667Y-11716048D02*
X13901191Y-11697000D01*
X13901191Y-11697000D02*
X13920238Y-11668428D01*
X13920238Y-11668428D02*
X13929762Y-11658905D01*
X14091667Y-11754143D02*
X14091667Y-11887476D01*
X14044048Y-11677952D02*
X13996429Y-11820809D01*
X13996429Y-11820809D02*
X14120238Y-11820809D01*
X14316429Y-11887476D02*
X14316429Y-11687476D01*
X14402143Y-11887476D02*
X14402143Y-11782714D01*
X14402143Y-11782714D02*
X14392619Y-11763667D01*
X14392619Y-11763667D02*
X14373572Y-11754143D01*
X14373572Y-11754143D02*
X14345000Y-11754143D01*
X14345000Y-11754143D02*
X14325952Y-11763667D01*
X14325952Y-11763667D02*
X14316429Y-11773190D01*
X14525952Y-11887476D02*
X14506905Y-11877952D01*
X14506905Y-11877952D02*
X14497381Y-11868428D01*
X14497381Y-11868428D02*
X14487857Y-11849381D01*
X14487857Y-11849381D02*
X14487857Y-11792238D01*
X14487857Y-11792238D02*
X14497381Y-11773190D01*
X14497381Y-11773190D02*
X14506905Y-11763667D01*
X14506905Y-11763667D02*
X14525952Y-11754143D01*
X14525952Y-11754143D02*
X14554524Y-11754143D01*
X14554524Y-11754143D02*
X14573572Y-11763667D01*
X14573572Y-11763667D02*
X14583095Y-11773190D01*
X14583095Y-11773190D02*
X14592619Y-11792238D01*
X14592619Y-11792238D02*
X14592619Y-11849381D01*
X14592619Y-11849381D02*
X14583095Y-11868428D01*
X14583095Y-11868428D02*
X14573572Y-11877952D01*
X14573572Y-11877952D02*
X14554524Y-11887476D01*
X14554524Y-11887476D02*
X14525952Y-11887476D01*
X14706905Y-11887476D02*
X14687857Y-11877952D01*
X14687857Y-11877952D02*
X14678333Y-11858905D01*
X14678333Y-11858905D02*
X14678333Y-11687476D01*
X14859286Y-11877952D02*
X14840238Y-11887476D01*
X14840238Y-11887476D02*
X14802143Y-11887476D01*
X14802143Y-11887476D02*
X14783095Y-11877952D01*
X14783095Y-11877952D02*
X14773572Y-11858905D01*
X14773572Y-11858905D02*
X14773572Y-11782714D01*
X14773572Y-11782714D02*
X14783095Y-11763667D01*
X14783095Y-11763667D02*
X14802143Y-11754143D01*
X14802143Y-11754143D02*
X14840238Y-11754143D01*
X14840238Y-11754143D02*
X14859286Y-11763667D01*
X14859286Y-11763667D02*
X14868810Y-11782714D01*
X14868810Y-11782714D02*
X14868810Y-11801762D01*
X14868810Y-11801762D02*
X14773572Y-11820809D01*
X14945000Y-11877952D02*
X14964048Y-11887476D01*
X14964048Y-11887476D02*
X15002143Y-11887476D01*
X15002143Y-11887476D02*
X15021191Y-11877952D01*
X15021191Y-11877952D02*
X15030714Y-11858905D01*
X15030714Y-11858905D02*
X15030714Y-11849381D01*
X15030714Y-11849381D02*
X15021191Y-11830333D01*
X15021191Y-11830333D02*
X15002143Y-11820809D01*
X15002143Y-11820809D02*
X14973572Y-11820809D01*
X14973572Y-11820809D02*
X14954524Y-11811286D01*
X14954524Y-11811286D02*
X14945000Y-11792238D01*
X14945000Y-11792238D02*
X14945000Y-11782714D01*
X14945000Y-11782714D02*
X14954524Y-11763667D01*
X14954524Y-11763667D02*
X14973572Y-11754143D01*
X14973572Y-11754143D02*
X15002143Y-11754143D01*
X15002143Y-11754143D02*
X15021191Y-11763667D01*
X15097381Y-11963667D02*
X15106905Y-11954143D01*
X15106905Y-11954143D02*
X15125953Y-11925571D01*
X15125953Y-11925571D02*
X15135476Y-11906524D01*
X15135476Y-11906524D02*
X15145000Y-11877952D01*
X15145000Y-11877952D02*
X15154524Y-11830333D01*
X15154524Y-11830333D02*
X15154524Y-11792238D01*
X15154524Y-11792238D02*
X15145000Y-11744619D01*
X15145000Y-11744619D02*
X15135476Y-11716048D01*
X15135476Y-11716048D02*
X15125953Y-11697000D01*
X15125953Y-11697000D02*
X15106905Y-11668428D01*
X15106905Y-11668428D02*
X15097381Y-11658905D01*
D12*
X10425000Y-12038000D02*
X10425000Y-12118000D01*
X10385000Y-12078000D02*
X10465000Y-12078000D01*
D10*
X10750714Y-11951476D02*
X10769762Y-11951476D01*
X10769762Y-11951476D02*
X10788810Y-11961000D01*
X10788810Y-11961000D02*
X10798333Y-11970524D01*
X10798333Y-11970524D02*
X10807857Y-11989571D01*
X10807857Y-11989571D02*
X10817381Y-12027667D01*
X10817381Y-12027667D02*
X10817381Y-12075286D01*
X10817381Y-12075286D02*
X10807857Y-12113381D01*
X10807857Y-12113381D02*
X10798333Y-12132428D01*
X10798333Y-12132428D02*
X10788810Y-12141952D01*
X10788810Y-12141952D02*
X10769762Y-12151476D01*
X10769762Y-12151476D02*
X10750714Y-12151476D01*
X10750714Y-12151476D02*
X10731667Y-12141952D01*
X10731667Y-12141952D02*
X10722143Y-12132428D01*
X10722143Y-12132428D02*
X10712619Y-12113381D01*
X10712619Y-12113381D02*
X10703095Y-12075286D01*
X10703095Y-12075286D02*
X10703095Y-12027667D01*
X10703095Y-12027667D02*
X10712619Y-11989571D01*
X10712619Y-11989571D02*
X10722143Y-11970524D01*
X10722143Y-11970524D02*
X10731667Y-11961000D01*
X10731667Y-11961000D02*
X10750714Y-11951476D01*
X10903095Y-12132428D02*
X10912619Y-12141952D01*
X10912619Y-12141952D02*
X10903095Y-12151476D01*
X10903095Y-12151476D02*
X10893571Y-12141952D01*
X10893571Y-12141952D02*
X10903095Y-12132428D01*
X10903095Y-12132428D02*
X10903095Y-12151476D01*
X11026905Y-12037190D02*
X11007857Y-12027667D01*
X11007857Y-12027667D02*
X10998333Y-12018143D01*
X10998333Y-12018143D02*
X10988810Y-11999095D01*
X10988810Y-11999095D02*
X10988810Y-11989571D01*
X10988810Y-11989571D02*
X10998333Y-11970524D01*
X10998333Y-11970524D02*
X11007857Y-11961000D01*
X11007857Y-11961000D02*
X11026905Y-11951476D01*
X11026905Y-11951476D02*
X11065000Y-11951476D01*
X11065000Y-11951476D02*
X11084048Y-11961000D01*
X11084048Y-11961000D02*
X11093571Y-11970524D01*
X11093571Y-11970524D02*
X11103095Y-11989571D01*
X11103095Y-11989571D02*
X11103095Y-11999095D01*
X11103095Y-11999095D02*
X11093571Y-12018143D01*
X11093571Y-12018143D02*
X11084048Y-12027667D01*
X11084048Y-12027667D02*
X11065000Y-12037190D01*
X11065000Y-12037190D02*
X11026905Y-12037190D01*
X11026905Y-12037190D02*
X11007857Y-12046714D01*
X11007857Y-12046714D02*
X10998333Y-12056238D01*
X10998333Y-12056238D02*
X10988810Y-12075286D01*
X10988810Y-12075286D02*
X10988810Y-12113381D01*
X10988810Y-12113381D02*
X10998333Y-12132428D01*
X10998333Y-12132428D02*
X11007857Y-12141952D01*
X11007857Y-12141952D02*
X11026905Y-12151476D01*
X11026905Y-12151476D02*
X11065000Y-12151476D01*
X11065000Y-12151476D02*
X11084048Y-12141952D01*
X11084048Y-12141952D02*
X11093571Y-12132428D01*
X11093571Y-12132428D02*
X11103095Y-12113381D01*
X11103095Y-12113381D02*
X11103095Y-12075286D01*
X11103095Y-12075286D02*
X11093571Y-12056238D01*
X11093571Y-12056238D02*
X11084048Y-12046714D01*
X11084048Y-12046714D02*
X11065000Y-12037190D01*
X11226905Y-11951476D02*
X11245952Y-11951476D01*
X11245952Y-11951476D02*
X11265000Y-11961000D01*
X11265000Y-11961000D02*
X11274524Y-11970524D01*
X11274524Y-11970524D02*
X11284048Y-11989571D01*
X11284048Y-11989571D02*
X11293571Y-12027667D01*
X11293571Y-12027667D02*
X11293571Y-12075286D01*
X11293571Y-12075286D02*
X11284048Y-12113381D01*
X11284048Y-12113381D02*
X11274524Y-12132428D01*
X11274524Y-12132428D02*
X11265000Y-12141952D01*
X11265000Y-12141952D02*
X11245952Y-12151476D01*
X11245952Y-12151476D02*
X11226905Y-12151476D01*
X11226905Y-12151476D02*
X11207857Y-12141952D01*
X11207857Y-12141952D02*
X11198333Y-12132428D01*
X11198333Y-12132428D02*
X11188809Y-12113381D01*
X11188809Y-12113381D02*
X11179286Y-12075286D01*
X11179286Y-12075286D02*
X11179286Y-12027667D01*
X11179286Y-12027667D02*
X11188809Y-11989571D01*
X11188809Y-11989571D02*
X11198333Y-11970524D01*
X11198333Y-11970524D02*
X11207857Y-11961000D01*
X11207857Y-11961000D02*
X11226905Y-11951476D01*
X11417381Y-11951476D02*
X11436429Y-11951476D01*
X11436429Y-11951476D02*
X11455476Y-11961000D01*
X11455476Y-11961000D02*
X11465000Y-11970524D01*
X11465000Y-11970524D02*
X11474524Y-11989571D01*
X11474524Y-11989571D02*
X11484048Y-12027667D01*
X11484048Y-12027667D02*
X11484048Y-12075286D01*
X11484048Y-12075286D02*
X11474524Y-12113381D01*
X11474524Y-12113381D02*
X11465000Y-12132428D01*
X11465000Y-12132428D02*
X11455476Y-12141952D01*
X11455476Y-12141952D02*
X11436429Y-12151476D01*
X11436429Y-12151476D02*
X11417381Y-12151476D01*
X11417381Y-12151476D02*
X11398333Y-12141952D01*
X11398333Y-12141952D02*
X11388809Y-12132428D01*
X11388809Y-12132428D02*
X11379286Y-12113381D01*
X11379286Y-12113381D02*
X11369762Y-12075286D01*
X11369762Y-12075286D02*
X11369762Y-12027667D01*
X11369762Y-12027667D02*
X11379286Y-11989571D01*
X11379286Y-11989571D02*
X11388809Y-11970524D01*
X11388809Y-11970524D02*
X11398333Y-11961000D01*
X11398333Y-11961000D02*
X11417381Y-11951476D01*
X11569762Y-12151476D02*
X11569762Y-12018143D01*
X11569762Y-12037190D02*
X11579286Y-12027667D01*
X11579286Y-12027667D02*
X11598333Y-12018143D01*
X11598333Y-12018143D02*
X11626905Y-12018143D01*
X11626905Y-12018143D02*
X11645952Y-12027667D01*
X11645952Y-12027667D02*
X11655476Y-12046714D01*
X11655476Y-12046714D02*
X11655476Y-12151476D01*
X11655476Y-12046714D02*
X11665000Y-12027667D01*
X11665000Y-12027667D02*
X11684048Y-12018143D01*
X11684048Y-12018143D02*
X11712619Y-12018143D01*
X11712619Y-12018143D02*
X11731667Y-12027667D01*
X11731667Y-12027667D02*
X11741190Y-12046714D01*
X11741190Y-12046714D02*
X11741190Y-12151476D01*
X11836429Y-12151476D02*
X11836429Y-12018143D01*
X11836429Y-12037190D02*
X11845952Y-12027667D01*
X11845952Y-12027667D02*
X11865000Y-12018143D01*
X11865000Y-12018143D02*
X11893571Y-12018143D01*
X11893571Y-12018143D02*
X11912619Y-12027667D01*
X11912619Y-12027667D02*
X11922143Y-12046714D01*
X11922143Y-12046714D02*
X11922143Y-12151476D01*
X11922143Y-12046714D02*
X11931667Y-12027667D01*
X11931667Y-12027667D02*
X11950714Y-12018143D01*
X11950714Y-12018143D02*
X11979286Y-12018143D01*
X11979286Y-12018143D02*
X11998333Y-12027667D01*
X11998333Y-12027667D02*
X12007857Y-12046714D01*
X12007857Y-12046714D02*
X12007857Y-12151476D01*
X12365952Y-11941952D02*
X12194524Y-12199095D01*
X12590714Y-11951476D02*
X12609762Y-11951476D01*
X12609762Y-11951476D02*
X12628810Y-11961000D01*
X12628810Y-11961000D02*
X12638333Y-11970524D01*
X12638333Y-11970524D02*
X12647857Y-11989571D01*
X12647857Y-11989571D02*
X12657381Y-12027667D01*
X12657381Y-12027667D02*
X12657381Y-12075286D01*
X12657381Y-12075286D02*
X12647857Y-12113381D01*
X12647857Y-12113381D02*
X12638333Y-12132428D01*
X12638333Y-12132428D02*
X12628810Y-12141952D01*
X12628810Y-12141952D02*
X12609762Y-12151476D01*
X12609762Y-12151476D02*
X12590714Y-12151476D01*
X12590714Y-12151476D02*
X12571667Y-12141952D01*
X12571667Y-12141952D02*
X12562143Y-12132428D01*
X12562143Y-12132428D02*
X12552619Y-12113381D01*
X12552619Y-12113381D02*
X12543095Y-12075286D01*
X12543095Y-12075286D02*
X12543095Y-12027667D01*
X12543095Y-12027667D02*
X12552619Y-11989571D01*
X12552619Y-11989571D02*
X12562143Y-11970524D01*
X12562143Y-11970524D02*
X12571667Y-11961000D01*
X12571667Y-11961000D02*
X12590714Y-11951476D01*
X12743095Y-12132428D02*
X12752619Y-12141952D01*
X12752619Y-12141952D02*
X12743095Y-12151476D01*
X12743095Y-12151476D02*
X12733571Y-12141952D01*
X12733571Y-12141952D02*
X12743095Y-12132428D01*
X12743095Y-12132428D02*
X12743095Y-12151476D01*
X12876429Y-11951476D02*
X12895476Y-11951476D01*
X12895476Y-11951476D02*
X12914524Y-11961000D01*
X12914524Y-11961000D02*
X12924048Y-11970524D01*
X12924048Y-11970524D02*
X12933571Y-11989571D01*
X12933571Y-11989571D02*
X12943095Y-12027667D01*
X12943095Y-12027667D02*
X12943095Y-12075286D01*
X12943095Y-12075286D02*
X12933571Y-12113381D01*
X12933571Y-12113381D02*
X12924048Y-12132428D01*
X12924048Y-12132428D02*
X12914524Y-12141952D01*
X12914524Y-12141952D02*
X12895476Y-12151476D01*
X12895476Y-12151476D02*
X12876429Y-12151476D01*
X12876429Y-12151476D02*
X12857381Y-12141952D01*
X12857381Y-12141952D02*
X12847857Y-12132428D01*
X12847857Y-12132428D02*
X12838333Y-12113381D01*
X12838333Y-12113381D02*
X12828810Y-12075286D01*
X12828810Y-12075286D02*
X12828810Y-12027667D01*
X12828810Y-12027667D02*
X12838333Y-11989571D01*
X12838333Y-11989571D02*
X12847857Y-11970524D01*
X12847857Y-11970524D02*
X12857381Y-11961000D01*
X12857381Y-11961000D02*
X12876429Y-11951476D01*
X13009762Y-11951476D02*
X13133571Y-11951476D01*
X13133571Y-11951476D02*
X13066905Y-12027667D01*
X13066905Y-12027667D02*
X13095476Y-12027667D01*
X13095476Y-12027667D02*
X13114524Y-12037190D01*
X13114524Y-12037190D02*
X13124048Y-12046714D01*
X13124048Y-12046714D02*
X13133571Y-12065762D01*
X13133571Y-12065762D02*
X13133571Y-12113381D01*
X13133571Y-12113381D02*
X13124048Y-12132428D01*
X13124048Y-12132428D02*
X13114524Y-12141952D01*
X13114524Y-12141952D02*
X13095476Y-12151476D01*
X13095476Y-12151476D02*
X13038333Y-12151476D01*
X13038333Y-12151476D02*
X13019286Y-12141952D01*
X13019286Y-12141952D02*
X13009762Y-12132428D01*
X13324048Y-12151476D02*
X13209762Y-12151476D01*
X13266905Y-12151476D02*
X13266905Y-11951476D01*
X13266905Y-11951476D02*
X13247857Y-11980048D01*
X13247857Y-11980048D02*
X13228810Y-11999095D01*
X13228810Y-11999095D02*
X13209762Y-12008619D01*
X13505000Y-11951476D02*
X13409762Y-11951476D01*
X13409762Y-11951476D02*
X13400238Y-12046714D01*
X13400238Y-12046714D02*
X13409762Y-12037190D01*
X13409762Y-12037190D02*
X13428810Y-12027667D01*
X13428810Y-12027667D02*
X13476429Y-12027667D01*
X13476429Y-12027667D02*
X13495476Y-12037190D01*
X13495476Y-12037190D02*
X13505000Y-12046714D01*
X13505000Y-12046714D02*
X13514524Y-12065762D01*
X13514524Y-12065762D02*
X13514524Y-12113381D01*
X13514524Y-12113381D02*
X13505000Y-12132428D01*
X13505000Y-12132428D02*
X13495476Y-12141952D01*
X13495476Y-12141952D02*
X13476429Y-12151476D01*
X13476429Y-12151476D02*
X13428810Y-12151476D01*
X13428810Y-12151476D02*
X13409762Y-12141952D01*
X13409762Y-12141952D02*
X13400238Y-12132428D01*
X13590714Y-11951476D02*
X13590714Y-11989571D01*
X13666905Y-11951476D02*
X13666905Y-11989571D01*
X13929762Y-12227667D02*
X13920238Y-12218143D01*
X13920238Y-12218143D02*
X13901191Y-12189571D01*
X13901191Y-12189571D02*
X13891667Y-12170524D01*
X13891667Y-12170524D02*
X13882143Y-12141952D01*
X13882143Y-12141952D02*
X13872619Y-12094333D01*
X13872619Y-12094333D02*
X13872619Y-12056238D01*
X13872619Y-12056238D02*
X13882143Y-12008619D01*
X13882143Y-12008619D02*
X13891667Y-11980048D01*
X13891667Y-11980048D02*
X13901191Y-11961000D01*
X13901191Y-11961000D02*
X13920238Y-11932428D01*
X13920238Y-11932428D02*
X13929762Y-11922905D01*
X14110714Y-12151476D02*
X13996429Y-12151476D01*
X14053571Y-12151476D02*
X14053571Y-11951476D01*
X14053571Y-11951476D02*
X14034524Y-11980048D01*
X14034524Y-11980048D02*
X14015476Y-11999095D01*
X14015476Y-11999095D02*
X13996429Y-12008619D01*
X14282143Y-12018143D02*
X14282143Y-12151476D01*
X14234524Y-11941952D02*
X14186905Y-12084809D01*
X14186905Y-12084809D02*
X14310714Y-12084809D01*
X14506905Y-12151476D02*
X14506905Y-11951476D01*
X14592619Y-12151476D02*
X14592619Y-12046714D01*
X14592619Y-12046714D02*
X14583095Y-12027667D01*
X14583095Y-12027667D02*
X14564048Y-12018143D01*
X14564048Y-12018143D02*
X14535476Y-12018143D01*
X14535476Y-12018143D02*
X14516429Y-12027667D01*
X14516429Y-12027667D02*
X14506905Y-12037190D01*
X14716429Y-12151476D02*
X14697381Y-12141952D01*
X14697381Y-12141952D02*
X14687857Y-12132428D01*
X14687857Y-12132428D02*
X14678333Y-12113381D01*
X14678333Y-12113381D02*
X14678333Y-12056238D01*
X14678333Y-12056238D02*
X14687857Y-12037190D01*
X14687857Y-12037190D02*
X14697381Y-12027667D01*
X14697381Y-12027667D02*
X14716429Y-12018143D01*
X14716429Y-12018143D02*
X14745000Y-12018143D01*
X14745000Y-12018143D02*
X14764048Y-12027667D01*
X14764048Y-12027667D02*
X14773572Y-12037190D01*
X14773572Y-12037190D02*
X14783095Y-12056238D01*
X14783095Y-12056238D02*
X14783095Y-12113381D01*
X14783095Y-12113381D02*
X14773572Y-12132428D01*
X14773572Y-12132428D02*
X14764048Y-12141952D01*
X14764048Y-12141952D02*
X14745000Y-12151476D01*
X14745000Y-12151476D02*
X14716429Y-12151476D01*
X14897381Y-12151476D02*
X14878333Y-12141952D01*
X14878333Y-12141952D02*
X14868810Y-12122905D01*
X14868810Y-12122905D02*
X14868810Y-11951476D01*
X15049762Y-12141952D02*
X15030714Y-12151476D01*
X15030714Y-12151476D02*
X14992619Y-12151476D01*
X14992619Y-12151476D02*
X14973572Y-12141952D01*
X14973572Y-12141952D02*
X14964048Y-12122905D01*
X14964048Y-12122905D02*
X14964048Y-12046714D01*
X14964048Y-12046714D02*
X14973572Y-12027667D01*
X14973572Y-12027667D02*
X14992619Y-12018143D01*
X14992619Y-12018143D02*
X15030714Y-12018143D01*
X15030714Y-12018143D02*
X15049762Y-12027667D01*
X15049762Y-12027667D02*
X15059286Y-12046714D01*
X15059286Y-12046714D02*
X15059286Y-12065762D01*
X15059286Y-12065762D02*
X14964048Y-12084809D01*
X15135476Y-12141952D02*
X15154524Y-12151476D01*
X15154524Y-12151476D02*
X15192619Y-12151476D01*
X15192619Y-12151476D02*
X15211667Y-12141952D01*
X15211667Y-12141952D02*
X15221191Y-12122905D01*
X15221191Y-12122905D02*
X15221191Y-12113381D01*
X15221191Y-12113381D02*
X15211667Y-12094333D01*
X15211667Y-12094333D02*
X15192619Y-12084809D01*
X15192619Y-12084809D02*
X15164048Y-12084809D01*
X15164048Y-12084809D02*
X15145000Y-12075286D01*
X15145000Y-12075286D02*
X15135476Y-12056238D01*
X15135476Y-12056238D02*
X15135476Y-12046714D01*
X15135476Y-12046714D02*
X15145000Y-12027667D01*
X15145000Y-12027667D02*
X15164048Y-12018143D01*
X15164048Y-12018143D02*
X15192619Y-12018143D01*
X15192619Y-12018143D02*
X15211667Y-12027667D01*
X15287857Y-12227667D02*
X15297381Y-12218143D01*
X15297381Y-12218143D02*
X15316429Y-12189571D01*
X15316429Y-12189571D02*
X15325953Y-12170524D01*
X15325953Y-12170524D02*
X15335476Y-12141952D01*
X15335476Y-12141952D02*
X15345000Y-12094333D01*
X15345000Y-12094333D02*
X15345000Y-12056238D01*
X15345000Y-12056238D02*
X15335476Y-12008619D01*
X15335476Y-12008619D02*
X15325953Y-11980048D01*
X15325953Y-11980048D02*
X15316429Y-11961000D01*
X15316429Y-11961000D02*
X15297381Y-11932428D01*
X15297381Y-11932428D02*
X15287857Y-11922905D01*
D13*
X10450356Y-12377356D02*
X10450356Y-12306644D01*
X10379644Y-12306644D01*
X10379644Y-12377356D01*
X10450356Y-12377356D01*
D10*
X10817381Y-12415476D02*
X10703095Y-12415476D01*
X10760238Y-12415476D02*
X10760238Y-12215476D01*
X10760238Y-12215476D02*
X10741190Y-12244048D01*
X10741190Y-12244048D02*
X10722143Y-12263095D01*
X10722143Y-12263095D02*
X10703095Y-12272619D01*
X10903095Y-12396428D02*
X10912619Y-12405952D01*
X10912619Y-12405952D02*
X10903095Y-12415476D01*
X10903095Y-12415476D02*
X10893571Y-12405952D01*
X10893571Y-12405952D02*
X10903095Y-12396428D01*
X10903095Y-12396428D02*
X10903095Y-12415476D01*
X11036429Y-12215476D02*
X11055476Y-12215476D01*
X11055476Y-12215476D02*
X11074524Y-12225000D01*
X11074524Y-12225000D02*
X11084048Y-12234524D01*
X11084048Y-12234524D02*
X11093571Y-12253571D01*
X11093571Y-12253571D02*
X11103095Y-12291667D01*
X11103095Y-12291667D02*
X11103095Y-12339286D01*
X11103095Y-12339286D02*
X11093571Y-12377381D01*
X11093571Y-12377381D02*
X11084048Y-12396428D01*
X11084048Y-12396428D02*
X11074524Y-12405952D01*
X11074524Y-12405952D02*
X11055476Y-12415476D01*
X11055476Y-12415476D02*
X11036429Y-12415476D01*
X11036429Y-12415476D02*
X11017381Y-12405952D01*
X11017381Y-12405952D02*
X11007857Y-12396428D01*
X11007857Y-12396428D02*
X10998333Y-12377381D01*
X10998333Y-12377381D02*
X10988810Y-12339286D01*
X10988810Y-12339286D02*
X10988810Y-12291667D01*
X10988810Y-12291667D02*
X10998333Y-12253571D01*
X10998333Y-12253571D02*
X11007857Y-12234524D01*
X11007857Y-12234524D02*
X11017381Y-12225000D01*
X11017381Y-12225000D02*
X11036429Y-12215476D01*
X11226905Y-12215476D02*
X11245952Y-12215476D01*
X11245952Y-12215476D02*
X11265000Y-12225000D01*
X11265000Y-12225000D02*
X11274524Y-12234524D01*
X11274524Y-12234524D02*
X11284048Y-12253571D01*
X11284048Y-12253571D02*
X11293571Y-12291667D01*
X11293571Y-12291667D02*
X11293571Y-12339286D01*
X11293571Y-12339286D02*
X11284048Y-12377381D01*
X11284048Y-12377381D02*
X11274524Y-12396428D01*
X11274524Y-12396428D02*
X11265000Y-12405952D01*
X11265000Y-12405952D02*
X11245952Y-12415476D01*
X11245952Y-12415476D02*
X11226905Y-12415476D01*
X11226905Y-12415476D02*
X11207857Y-12405952D01*
X11207857Y-12405952D02*
X11198333Y-12396428D01*
X11198333Y-12396428D02*
X11188809Y-12377381D01*
X11188809Y-12377381D02*
X11179286Y-12339286D01*
X11179286Y-12339286D02*
X11179286Y-12291667D01*
X11179286Y-12291667D02*
X11188809Y-12253571D01*
X11188809Y-12253571D02*
X11198333Y-12234524D01*
X11198333Y-12234524D02*
X11207857Y-12225000D01*
X11207857Y-12225000D02*
X11226905Y-12215476D01*
X11417381Y-12215476D02*
X11436429Y-12215476D01*
X11436429Y-12215476D02*
X11455476Y-12225000D01*
X11455476Y-12225000D02*
X11465000Y-12234524D01*
X11465000Y-12234524D02*
X11474524Y-12253571D01*
X11474524Y-12253571D02*
X11484048Y-12291667D01*
X11484048Y-12291667D02*
X11484048Y-12339286D01*
X11484048Y-12339286D02*
X11474524Y-12377381D01*
X11474524Y-12377381D02*
X11465000Y-12396428D01*
X11465000Y-12396428D02*
X11455476Y-12405952D01*
X11455476Y-12405952D02*
X11436429Y-12415476D01*
X11436429Y-12415476D02*
X11417381Y-12415476D01*
X11417381Y-12415476D02*
X11398333Y-12405952D01*
X11398333Y-12405952D02*
X11388809Y-12396428D01*
X11388809Y-12396428D02*
X11379286Y-12377381D01*
X11379286Y-12377381D02*
X11369762Y-12339286D01*
X11369762Y-12339286D02*
X11369762Y-12291667D01*
X11369762Y-12291667D02*
X11379286Y-12253571D01*
X11379286Y-12253571D02*
X11388809Y-12234524D01*
X11388809Y-12234524D02*
X11398333Y-12225000D01*
X11398333Y-12225000D02*
X11417381Y-12215476D01*
X11569762Y-12415476D02*
X11569762Y-12282143D01*
X11569762Y-12301190D02*
X11579286Y-12291667D01*
X11579286Y-12291667D02*
X11598333Y-12282143D01*
X11598333Y-12282143D02*
X11626905Y-12282143D01*
X11626905Y-12282143D02*
X11645952Y-12291667D01*
X11645952Y-12291667D02*
X11655476Y-12310714D01*
X11655476Y-12310714D02*
X11655476Y-12415476D01*
X11655476Y-12310714D02*
X11665000Y-12291667D01*
X11665000Y-12291667D02*
X11684048Y-12282143D01*
X11684048Y-12282143D02*
X11712619Y-12282143D01*
X11712619Y-12282143D02*
X11731667Y-12291667D01*
X11731667Y-12291667D02*
X11741190Y-12310714D01*
X11741190Y-12310714D02*
X11741190Y-12415476D01*
X11836429Y-12415476D02*
X11836429Y-12282143D01*
X11836429Y-12301190D02*
X11845952Y-12291667D01*
X11845952Y-12291667D02*
X11865000Y-12282143D01*
X11865000Y-12282143D02*
X11893571Y-12282143D01*
X11893571Y-12282143D02*
X11912619Y-12291667D01*
X11912619Y-12291667D02*
X11922143Y-12310714D01*
X11922143Y-12310714D02*
X11922143Y-12415476D01*
X11922143Y-12310714D02*
X11931667Y-12291667D01*
X11931667Y-12291667D02*
X11950714Y-12282143D01*
X11950714Y-12282143D02*
X11979286Y-12282143D01*
X11979286Y-12282143D02*
X11998333Y-12291667D01*
X11998333Y-12291667D02*
X12007857Y-12310714D01*
X12007857Y-12310714D02*
X12007857Y-12415476D01*
X12365952Y-12205952D02*
X12194524Y-12463095D01*
X12590714Y-12215476D02*
X12609762Y-12215476D01*
X12609762Y-12215476D02*
X12628810Y-12225000D01*
X12628810Y-12225000D02*
X12638333Y-12234524D01*
X12638333Y-12234524D02*
X12647857Y-12253571D01*
X12647857Y-12253571D02*
X12657381Y-12291667D01*
X12657381Y-12291667D02*
X12657381Y-12339286D01*
X12657381Y-12339286D02*
X12647857Y-12377381D01*
X12647857Y-12377381D02*
X12638333Y-12396428D01*
X12638333Y-12396428D02*
X12628810Y-12405952D01*
X12628810Y-12405952D02*
X12609762Y-12415476D01*
X12609762Y-12415476D02*
X12590714Y-12415476D01*
X12590714Y-12415476D02*
X12571667Y-12405952D01*
X12571667Y-12405952D02*
X12562143Y-12396428D01*
X12562143Y-12396428D02*
X12552619Y-12377381D01*
X12552619Y-12377381D02*
X12543095Y-12339286D01*
X12543095Y-12339286D02*
X12543095Y-12291667D01*
X12543095Y-12291667D02*
X12552619Y-12253571D01*
X12552619Y-12253571D02*
X12562143Y-12234524D01*
X12562143Y-12234524D02*
X12571667Y-12225000D01*
X12571667Y-12225000D02*
X12590714Y-12215476D01*
X12743095Y-12396428D02*
X12752619Y-12405952D01*
X12752619Y-12405952D02*
X12743095Y-12415476D01*
X12743095Y-12415476D02*
X12733571Y-12405952D01*
X12733571Y-12405952D02*
X12743095Y-12396428D01*
X12743095Y-12396428D02*
X12743095Y-12415476D01*
X12876429Y-12215476D02*
X12895476Y-12215476D01*
X12895476Y-12215476D02*
X12914524Y-12225000D01*
X12914524Y-12225000D02*
X12924048Y-12234524D01*
X12924048Y-12234524D02*
X12933571Y-12253571D01*
X12933571Y-12253571D02*
X12943095Y-12291667D01*
X12943095Y-12291667D02*
X12943095Y-12339286D01*
X12943095Y-12339286D02*
X12933571Y-12377381D01*
X12933571Y-12377381D02*
X12924048Y-12396428D01*
X12924048Y-12396428D02*
X12914524Y-12405952D01*
X12914524Y-12405952D02*
X12895476Y-12415476D01*
X12895476Y-12415476D02*
X12876429Y-12415476D01*
X12876429Y-12415476D02*
X12857381Y-12405952D01*
X12857381Y-12405952D02*
X12847857Y-12396428D01*
X12847857Y-12396428D02*
X12838333Y-12377381D01*
X12838333Y-12377381D02*
X12828810Y-12339286D01*
X12828810Y-12339286D02*
X12828810Y-12291667D01*
X12828810Y-12291667D02*
X12838333Y-12253571D01*
X12838333Y-12253571D02*
X12847857Y-12234524D01*
X12847857Y-12234524D02*
X12857381Y-12225000D01*
X12857381Y-12225000D02*
X12876429Y-12215476D01*
X13009762Y-12215476D02*
X13133571Y-12215476D01*
X13133571Y-12215476D02*
X13066905Y-12291667D01*
X13066905Y-12291667D02*
X13095476Y-12291667D01*
X13095476Y-12291667D02*
X13114524Y-12301190D01*
X13114524Y-12301190D02*
X13124048Y-12310714D01*
X13124048Y-12310714D02*
X13133571Y-12329762D01*
X13133571Y-12329762D02*
X13133571Y-12377381D01*
X13133571Y-12377381D02*
X13124048Y-12396428D01*
X13124048Y-12396428D02*
X13114524Y-12405952D01*
X13114524Y-12405952D02*
X13095476Y-12415476D01*
X13095476Y-12415476D02*
X13038333Y-12415476D01*
X13038333Y-12415476D02*
X13019286Y-12405952D01*
X13019286Y-12405952D02*
X13009762Y-12396428D01*
X13228810Y-12415476D02*
X13266905Y-12415476D01*
X13266905Y-12415476D02*
X13285952Y-12405952D01*
X13285952Y-12405952D02*
X13295476Y-12396428D01*
X13295476Y-12396428D02*
X13314524Y-12367857D01*
X13314524Y-12367857D02*
X13324048Y-12329762D01*
X13324048Y-12329762D02*
X13324048Y-12253571D01*
X13324048Y-12253571D02*
X13314524Y-12234524D01*
X13314524Y-12234524D02*
X13305000Y-12225000D01*
X13305000Y-12225000D02*
X13285952Y-12215476D01*
X13285952Y-12215476D02*
X13247857Y-12215476D01*
X13247857Y-12215476D02*
X13228810Y-12225000D01*
X13228810Y-12225000D02*
X13219286Y-12234524D01*
X13219286Y-12234524D02*
X13209762Y-12253571D01*
X13209762Y-12253571D02*
X13209762Y-12301190D01*
X13209762Y-12301190D02*
X13219286Y-12320238D01*
X13219286Y-12320238D02*
X13228810Y-12329762D01*
X13228810Y-12329762D02*
X13247857Y-12339286D01*
X13247857Y-12339286D02*
X13285952Y-12339286D01*
X13285952Y-12339286D02*
X13305000Y-12329762D01*
X13305000Y-12329762D02*
X13314524Y-12320238D01*
X13314524Y-12320238D02*
X13324048Y-12301190D01*
X13495476Y-12282143D02*
X13495476Y-12415476D01*
X13447857Y-12205952D02*
X13400238Y-12348809D01*
X13400238Y-12348809D02*
X13524048Y-12348809D01*
X13590714Y-12215476D02*
X13590714Y-12253571D01*
X13666905Y-12215476D02*
X13666905Y-12253571D01*
X13929762Y-12491667D02*
X13920238Y-12482143D01*
X13920238Y-12482143D02*
X13901191Y-12453571D01*
X13901191Y-12453571D02*
X13891667Y-12434524D01*
X13891667Y-12434524D02*
X13882143Y-12405952D01*
X13882143Y-12405952D02*
X13872619Y-12358333D01*
X13872619Y-12358333D02*
X13872619Y-12320238D01*
X13872619Y-12320238D02*
X13882143Y-12272619D01*
X13882143Y-12272619D02*
X13891667Y-12244048D01*
X13891667Y-12244048D02*
X13901191Y-12225000D01*
X13901191Y-12225000D02*
X13920238Y-12196428D01*
X13920238Y-12196428D02*
X13929762Y-12186905D01*
X14091667Y-12215476D02*
X14053571Y-12215476D01*
X14053571Y-12215476D02*
X14034524Y-12225000D01*
X14034524Y-12225000D02*
X14025000Y-12234524D01*
X14025000Y-12234524D02*
X14005952Y-12263095D01*
X14005952Y-12263095D02*
X13996429Y-12301190D01*
X13996429Y-12301190D02*
X13996429Y-12377381D01*
X13996429Y-12377381D02*
X14005952Y-12396428D01*
X14005952Y-12396428D02*
X14015476Y-12405952D01*
X14015476Y-12405952D02*
X14034524Y-12415476D01*
X14034524Y-12415476D02*
X14072619Y-12415476D01*
X14072619Y-12415476D02*
X14091667Y-12405952D01*
X14091667Y-12405952D02*
X14101191Y-12396428D01*
X14101191Y-12396428D02*
X14110714Y-12377381D01*
X14110714Y-12377381D02*
X14110714Y-12329762D01*
X14110714Y-12329762D02*
X14101191Y-12310714D01*
X14101191Y-12310714D02*
X14091667Y-12301190D01*
X14091667Y-12301190D02*
X14072619Y-12291667D01*
X14072619Y-12291667D02*
X14034524Y-12291667D01*
X14034524Y-12291667D02*
X14015476Y-12301190D01*
X14015476Y-12301190D02*
X14005952Y-12310714D01*
X14005952Y-12310714D02*
X13996429Y-12329762D01*
X14291667Y-12215476D02*
X14196429Y-12215476D01*
X14196429Y-12215476D02*
X14186905Y-12310714D01*
X14186905Y-12310714D02*
X14196429Y-12301190D01*
X14196429Y-12301190D02*
X14215476Y-12291667D01*
X14215476Y-12291667D02*
X14263095Y-12291667D01*
X14263095Y-12291667D02*
X14282143Y-12301190D01*
X14282143Y-12301190D02*
X14291667Y-12310714D01*
X14291667Y-12310714D02*
X14301191Y-12329762D01*
X14301191Y-12329762D02*
X14301191Y-12377381D01*
X14301191Y-12377381D02*
X14291667Y-12396428D01*
X14291667Y-12396428D02*
X14282143Y-12405952D01*
X14282143Y-12405952D02*
X14263095Y-12415476D01*
X14263095Y-12415476D02*
X14215476Y-12415476D01*
X14215476Y-12415476D02*
X14196429Y-12405952D01*
X14196429Y-12405952D02*
X14186905Y-12396428D01*
X14506905Y-12415476D02*
X14506905Y-12215476D01*
X14592619Y-12415476D02*
X14592619Y-12310714D01*
X14592619Y-12310714D02*
X14583095Y-12291667D01*
X14583095Y-12291667D02*
X14564048Y-12282143D01*
X14564048Y-12282143D02*
X14535476Y-12282143D01*
X14535476Y-12282143D02*
X14516429Y-12291667D01*
X14516429Y-12291667D02*
X14506905Y-12301190D01*
X14716429Y-12415476D02*
X14697381Y-12405952D01*
X14697381Y-12405952D02*
X14687857Y-12396428D01*
X14687857Y-12396428D02*
X14678333Y-12377381D01*
X14678333Y-12377381D02*
X14678333Y-12320238D01*
X14678333Y-12320238D02*
X14687857Y-12301190D01*
X14687857Y-12301190D02*
X14697381Y-12291667D01*
X14697381Y-12291667D02*
X14716429Y-12282143D01*
X14716429Y-12282143D02*
X14745000Y-12282143D01*
X14745000Y-12282143D02*
X14764048Y-12291667D01*
X14764048Y-12291667D02*
X14773572Y-12301190D01*
X14773572Y-12301190D02*
X14783095Y-12320238D01*
X14783095Y-12320238D02*
X14783095Y-12377381D01*
X14783095Y-12377381D02*
X14773572Y-12396428D01*
X14773572Y-12396428D02*
X14764048Y-12405952D01*
X14764048Y-12405952D02*
X14745000Y-12415476D01*
X14745000Y-12415476D02*
X14716429Y-12415476D01*
X14897381Y-12415476D02*
X14878333Y-12405952D01*
X14878333Y-12405952D02*
X14868810Y-12386905D01*
X14868810Y-12386905D02*
X14868810Y-12215476D01*
X15049762Y-12405952D02*
X15030714Y-12415476D01*
X15030714Y-12415476D02*
X14992619Y-12415476D01*
X14992619Y-12415476D02*
X14973572Y-12405952D01*
X14973572Y-12405952D02*
X14964048Y-12386905D01*
X14964048Y-12386905D02*
X14964048Y-12310714D01*
X14964048Y-12310714D02*
X14973572Y-12291667D01*
X14973572Y-12291667D02*
X14992619Y-12282143D01*
X14992619Y-12282143D02*
X15030714Y-12282143D01*
X15030714Y-12282143D02*
X15049762Y-12291667D01*
X15049762Y-12291667D02*
X15059286Y-12310714D01*
X15059286Y-12310714D02*
X15059286Y-12329762D01*
X15059286Y-12329762D02*
X14964048Y-12348809D01*
X15135476Y-12405952D02*
X15154524Y-12415476D01*
X15154524Y-12415476D02*
X15192619Y-12415476D01*
X15192619Y-12415476D02*
X15211667Y-12405952D01*
X15211667Y-12405952D02*
X15221191Y-12386905D01*
X15221191Y-12386905D02*
X15221191Y-12377381D01*
X15221191Y-12377381D02*
X15211667Y-12358333D01*
X15211667Y-12358333D02*
X15192619Y-12348809D01*
X15192619Y-12348809D02*
X15164048Y-12348809D01*
X15164048Y-12348809D02*
X15145000Y-12339286D01*
X15145000Y-12339286D02*
X15135476Y-12320238D01*
X15135476Y-12320238D02*
X15135476Y-12310714D01*
X15135476Y-12310714D02*
X15145000Y-12291667D01*
X15145000Y-12291667D02*
X15164048Y-12282143D01*
X15164048Y-12282143D02*
X15192619Y-12282143D01*
X15192619Y-12282143D02*
X15211667Y-12291667D01*
X15287857Y-12491667D02*
X15297381Y-12482143D01*
X15297381Y-12482143D02*
X15316429Y-12453571D01*
X15316429Y-12453571D02*
X15325953Y-12434524D01*
X15325953Y-12434524D02*
X15335476Y-12405952D01*
X15335476Y-12405952D02*
X15345000Y-12358333D01*
X15345000Y-12358333D02*
X15345000Y-12320238D01*
X15345000Y-12320238D02*
X15335476Y-12272619D01*
X15335476Y-12272619D02*
X15325953Y-12244048D01*
X15325953Y-12244048D02*
X15316429Y-12225000D01*
X15316429Y-12225000D02*
X15297381Y-12196428D01*
X15297381Y-12196428D02*
X15287857Y-12186905D01*
D14*
X10375000Y-12696000D02*
X10465000Y-12606000D01*
X10375000Y-12516000D01*
X10285000Y-12606000D01*
X10375000Y-12696000D01*
D10*
X10817381Y-12679476D02*
X10703095Y-12679476D01*
X10760238Y-12679476D02*
X10760238Y-12479476D01*
X10760238Y-12479476D02*
X10741190Y-12508048D01*
X10741190Y-12508048D02*
X10722143Y-12527095D01*
X10722143Y-12527095D02*
X10703095Y-12536619D01*
X10903095Y-12660428D02*
X10912619Y-12669952D01*
X10912619Y-12669952D02*
X10903095Y-12679476D01*
X10903095Y-12679476D02*
X10893571Y-12669952D01*
X10893571Y-12669952D02*
X10903095Y-12660428D01*
X10903095Y-12660428D02*
X10903095Y-12679476D01*
X11026905Y-12565190D02*
X11007857Y-12555667D01*
X11007857Y-12555667D02*
X10998333Y-12546143D01*
X10998333Y-12546143D02*
X10988810Y-12527095D01*
X10988810Y-12527095D02*
X10988810Y-12517571D01*
X10988810Y-12517571D02*
X10998333Y-12498524D01*
X10998333Y-12498524D02*
X11007857Y-12489000D01*
X11007857Y-12489000D02*
X11026905Y-12479476D01*
X11026905Y-12479476D02*
X11065000Y-12479476D01*
X11065000Y-12479476D02*
X11084048Y-12489000D01*
X11084048Y-12489000D02*
X11093571Y-12498524D01*
X11093571Y-12498524D02*
X11103095Y-12517571D01*
X11103095Y-12517571D02*
X11103095Y-12527095D01*
X11103095Y-12527095D02*
X11093571Y-12546143D01*
X11093571Y-12546143D02*
X11084048Y-12555667D01*
X11084048Y-12555667D02*
X11065000Y-12565190D01*
X11065000Y-12565190D02*
X11026905Y-12565190D01*
X11026905Y-12565190D02*
X11007857Y-12574714D01*
X11007857Y-12574714D02*
X10998333Y-12584238D01*
X10998333Y-12584238D02*
X10988810Y-12603286D01*
X10988810Y-12603286D02*
X10988810Y-12641381D01*
X10988810Y-12641381D02*
X10998333Y-12660428D01*
X10998333Y-12660428D02*
X11007857Y-12669952D01*
X11007857Y-12669952D02*
X11026905Y-12679476D01*
X11026905Y-12679476D02*
X11065000Y-12679476D01*
X11065000Y-12679476D02*
X11084048Y-12669952D01*
X11084048Y-12669952D02*
X11093571Y-12660428D01*
X11093571Y-12660428D02*
X11103095Y-12641381D01*
X11103095Y-12641381D02*
X11103095Y-12603286D01*
X11103095Y-12603286D02*
X11093571Y-12584238D01*
X11093571Y-12584238D02*
X11084048Y-12574714D01*
X11084048Y-12574714D02*
X11065000Y-12565190D01*
X11226905Y-12479476D02*
X11245952Y-12479476D01*
X11245952Y-12479476D02*
X11265000Y-12489000D01*
X11265000Y-12489000D02*
X11274524Y-12498524D01*
X11274524Y-12498524D02*
X11284048Y-12517571D01*
X11284048Y-12517571D02*
X11293571Y-12555667D01*
X11293571Y-12555667D02*
X11293571Y-12603286D01*
X11293571Y-12603286D02*
X11284048Y-12641381D01*
X11284048Y-12641381D02*
X11274524Y-12660428D01*
X11274524Y-12660428D02*
X11265000Y-12669952D01*
X11265000Y-12669952D02*
X11245952Y-12679476D01*
X11245952Y-12679476D02*
X11226905Y-12679476D01*
X11226905Y-12679476D02*
X11207857Y-12669952D01*
X11207857Y-12669952D02*
X11198333Y-12660428D01*
X11198333Y-12660428D02*
X11188809Y-12641381D01*
X11188809Y-12641381D02*
X11179286Y-12603286D01*
X11179286Y-12603286D02*
X11179286Y-12555667D01*
X11179286Y-12555667D02*
X11188809Y-12517571D01*
X11188809Y-12517571D02*
X11198333Y-12498524D01*
X11198333Y-12498524D02*
X11207857Y-12489000D01*
X11207857Y-12489000D02*
X11226905Y-12479476D01*
X11417381Y-12479476D02*
X11436429Y-12479476D01*
X11436429Y-12479476D02*
X11455476Y-12489000D01*
X11455476Y-12489000D02*
X11465000Y-12498524D01*
X11465000Y-12498524D02*
X11474524Y-12517571D01*
X11474524Y-12517571D02*
X11484048Y-12555667D01*
X11484048Y-12555667D02*
X11484048Y-12603286D01*
X11484048Y-12603286D02*
X11474524Y-12641381D01*
X11474524Y-12641381D02*
X11465000Y-12660428D01*
X11465000Y-12660428D02*
X11455476Y-12669952D01*
X11455476Y-12669952D02*
X11436429Y-12679476D01*
X11436429Y-12679476D02*
X11417381Y-12679476D01*
X11417381Y-12679476D02*
X11398333Y-12669952D01*
X11398333Y-12669952D02*
X11388809Y-12660428D01*
X11388809Y-12660428D02*
X11379286Y-12641381D01*
X11379286Y-12641381D02*
X11369762Y-12603286D01*
X11369762Y-12603286D02*
X11369762Y-12555667D01*
X11369762Y-12555667D02*
X11379286Y-12517571D01*
X11379286Y-12517571D02*
X11388809Y-12498524D01*
X11388809Y-12498524D02*
X11398333Y-12489000D01*
X11398333Y-12489000D02*
X11417381Y-12479476D01*
X11569762Y-12679476D02*
X11569762Y-12546143D01*
X11569762Y-12565190D02*
X11579286Y-12555667D01*
X11579286Y-12555667D02*
X11598333Y-12546143D01*
X11598333Y-12546143D02*
X11626905Y-12546143D01*
X11626905Y-12546143D02*
X11645952Y-12555667D01*
X11645952Y-12555667D02*
X11655476Y-12574714D01*
X11655476Y-12574714D02*
X11655476Y-12679476D01*
X11655476Y-12574714D02*
X11665000Y-12555667D01*
X11665000Y-12555667D02*
X11684048Y-12546143D01*
X11684048Y-12546143D02*
X11712619Y-12546143D01*
X11712619Y-12546143D02*
X11731667Y-12555667D01*
X11731667Y-12555667D02*
X11741190Y-12574714D01*
X11741190Y-12574714D02*
X11741190Y-12679476D01*
X11836429Y-12679476D02*
X11836429Y-12546143D01*
X11836429Y-12565190D02*
X11845952Y-12555667D01*
X11845952Y-12555667D02*
X11865000Y-12546143D01*
X11865000Y-12546143D02*
X11893571Y-12546143D01*
X11893571Y-12546143D02*
X11912619Y-12555667D01*
X11912619Y-12555667D02*
X11922143Y-12574714D01*
X11922143Y-12574714D02*
X11922143Y-12679476D01*
X11922143Y-12574714D02*
X11931667Y-12555667D01*
X11931667Y-12555667D02*
X11950714Y-12546143D01*
X11950714Y-12546143D02*
X11979286Y-12546143D01*
X11979286Y-12546143D02*
X11998333Y-12555667D01*
X11998333Y-12555667D02*
X12007857Y-12574714D01*
X12007857Y-12574714D02*
X12007857Y-12679476D01*
X12365952Y-12469952D02*
X12194524Y-12727095D01*
X12590714Y-12479476D02*
X12609762Y-12479476D01*
X12609762Y-12479476D02*
X12628810Y-12489000D01*
X12628810Y-12489000D02*
X12638333Y-12498524D01*
X12638333Y-12498524D02*
X12647857Y-12517571D01*
X12647857Y-12517571D02*
X12657381Y-12555667D01*
X12657381Y-12555667D02*
X12657381Y-12603286D01*
X12657381Y-12603286D02*
X12647857Y-12641381D01*
X12647857Y-12641381D02*
X12638333Y-12660428D01*
X12638333Y-12660428D02*
X12628810Y-12669952D01*
X12628810Y-12669952D02*
X12609762Y-12679476D01*
X12609762Y-12679476D02*
X12590714Y-12679476D01*
X12590714Y-12679476D02*
X12571667Y-12669952D01*
X12571667Y-12669952D02*
X12562143Y-12660428D01*
X12562143Y-12660428D02*
X12552619Y-12641381D01*
X12552619Y-12641381D02*
X12543095Y-12603286D01*
X12543095Y-12603286D02*
X12543095Y-12555667D01*
X12543095Y-12555667D02*
X12552619Y-12517571D01*
X12552619Y-12517571D02*
X12562143Y-12498524D01*
X12562143Y-12498524D02*
X12571667Y-12489000D01*
X12571667Y-12489000D02*
X12590714Y-12479476D01*
X12743095Y-12660428D02*
X12752619Y-12669952D01*
X12752619Y-12669952D02*
X12743095Y-12679476D01*
X12743095Y-12679476D02*
X12733571Y-12669952D01*
X12733571Y-12669952D02*
X12743095Y-12660428D01*
X12743095Y-12660428D02*
X12743095Y-12679476D01*
X12876429Y-12479476D02*
X12895476Y-12479476D01*
X12895476Y-12479476D02*
X12914524Y-12489000D01*
X12914524Y-12489000D02*
X12924048Y-12498524D01*
X12924048Y-12498524D02*
X12933571Y-12517571D01*
X12933571Y-12517571D02*
X12943095Y-12555667D01*
X12943095Y-12555667D02*
X12943095Y-12603286D01*
X12943095Y-12603286D02*
X12933571Y-12641381D01*
X12933571Y-12641381D02*
X12924048Y-12660428D01*
X12924048Y-12660428D02*
X12914524Y-12669952D01*
X12914524Y-12669952D02*
X12895476Y-12679476D01*
X12895476Y-12679476D02*
X12876429Y-12679476D01*
X12876429Y-12679476D02*
X12857381Y-12669952D01*
X12857381Y-12669952D02*
X12847857Y-12660428D01*
X12847857Y-12660428D02*
X12838333Y-12641381D01*
X12838333Y-12641381D02*
X12828810Y-12603286D01*
X12828810Y-12603286D02*
X12828810Y-12555667D01*
X12828810Y-12555667D02*
X12838333Y-12517571D01*
X12838333Y-12517571D02*
X12847857Y-12498524D01*
X12847857Y-12498524D02*
X12857381Y-12489000D01*
X12857381Y-12489000D02*
X12876429Y-12479476D01*
X13009762Y-12479476D02*
X13143095Y-12479476D01*
X13143095Y-12479476D02*
X13057381Y-12679476D01*
X13257381Y-12479476D02*
X13276429Y-12479476D01*
X13276429Y-12479476D02*
X13295476Y-12489000D01*
X13295476Y-12489000D02*
X13305000Y-12498524D01*
X13305000Y-12498524D02*
X13314524Y-12517571D01*
X13314524Y-12517571D02*
X13324048Y-12555667D01*
X13324048Y-12555667D02*
X13324048Y-12603286D01*
X13324048Y-12603286D02*
X13314524Y-12641381D01*
X13314524Y-12641381D02*
X13305000Y-12660428D01*
X13305000Y-12660428D02*
X13295476Y-12669952D01*
X13295476Y-12669952D02*
X13276429Y-12679476D01*
X13276429Y-12679476D02*
X13257381Y-12679476D01*
X13257381Y-12679476D02*
X13238333Y-12669952D01*
X13238333Y-12669952D02*
X13228810Y-12660428D01*
X13228810Y-12660428D02*
X13219286Y-12641381D01*
X13219286Y-12641381D02*
X13209762Y-12603286D01*
X13209762Y-12603286D02*
X13209762Y-12555667D01*
X13209762Y-12555667D02*
X13219286Y-12517571D01*
X13219286Y-12517571D02*
X13228810Y-12498524D01*
X13228810Y-12498524D02*
X13238333Y-12489000D01*
X13238333Y-12489000D02*
X13257381Y-12479476D01*
X13419286Y-12679476D02*
X13457381Y-12679476D01*
X13457381Y-12679476D02*
X13476429Y-12669952D01*
X13476429Y-12669952D02*
X13485952Y-12660428D01*
X13485952Y-12660428D02*
X13505000Y-12631857D01*
X13505000Y-12631857D02*
X13514524Y-12593762D01*
X13514524Y-12593762D02*
X13514524Y-12517571D01*
X13514524Y-12517571D02*
X13505000Y-12498524D01*
X13505000Y-12498524D02*
X13495476Y-12489000D01*
X13495476Y-12489000D02*
X13476429Y-12479476D01*
X13476429Y-12479476D02*
X13438333Y-12479476D01*
X13438333Y-12479476D02*
X13419286Y-12489000D01*
X13419286Y-12489000D02*
X13409762Y-12498524D01*
X13409762Y-12498524D02*
X13400238Y-12517571D01*
X13400238Y-12517571D02*
X13400238Y-12565190D01*
X13400238Y-12565190D02*
X13409762Y-12584238D01*
X13409762Y-12584238D02*
X13419286Y-12593762D01*
X13419286Y-12593762D02*
X13438333Y-12603286D01*
X13438333Y-12603286D02*
X13476429Y-12603286D01*
X13476429Y-12603286D02*
X13495476Y-12593762D01*
X13495476Y-12593762D02*
X13505000Y-12584238D01*
X13505000Y-12584238D02*
X13514524Y-12565190D01*
X13590714Y-12479476D02*
X13590714Y-12517571D01*
X13666905Y-12479476D02*
X13666905Y-12517571D01*
X13929762Y-12755667D02*
X13920238Y-12746143D01*
X13920238Y-12746143D02*
X13901191Y-12717571D01*
X13901191Y-12717571D02*
X13891667Y-12698524D01*
X13891667Y-12698524D02*
X13882143Y-12669952D01*
X13882143Y-12669952D02*
X13872619Y-12622333D01*
X13872619Y-12622333D02*
X13872619Y-12584238D01*
X13872619Y-12584238D02*
X13882143Y-12536619D01*
X13882143Y-12536619D02*
X13891667Y-12508048D01*
X13891667Y-12508048D02*
X13901191Y-12489000D01*
X13901191Y-12489000D02*
X13920238Y-12460428D01*
X13920238Y-12460428D02*
X13929762Y-12450905D01*
X13996429Y-12498524D02*
X14005952Y-12489000D01*
X14005952Y-12489000D02*
X14025000Y-12479476D01*
X14025000Y-12479476D02*
X14072619Y-12479476D01*
X14072619Y-12479476D02*
X14091667Y-12489000D01*
X14091667Y-12489000D02*
X14101191Y-12498524D01*
X14101191Y-12498524D02*
X14110714Y-12517571D01*
X14110714Y-12517571D02*
X14110714Y-12536619D01*
X14110714Y-12536619D02*
X14101191Y-12565190D01*
X14101191Y-12565190D02*
X13986905Y-12679476D01*
X13986905Y-12679476D02*
X14110714Y-12679476D01*
X14282143Y-12546143D02*
X14282143Y-12679476D01*
X14234524Y-12469952D02*
X14186905Y-12612809D01*
X14186905Y-12612809D02*
X14310714Y-12612809D01*
X14506905Y-12679476D02*
X14506905Y-12479476D01*
X14592619Y-12679476D02*
X14592619Y-12574714D01*
X14592619Y-12574714D02*
X14583095Y-12555667D01*
X14583095Y-12555667D02*
X14564048Y-12546143D01*
X14564048Y-12546143D02*
X14535476Y-12546143D01*
X14535476Y-12546143D02*
X14516429Y-12555667D01*
X14516429Y-12555667D02*
X14506905Y-12565190D01*
X14716429Y-12679476D02*
X14697381Y-12669952D01*
X14697381Y-12669952D02*
X14687857Y-12660428D01*
X14687857Y-12660428D02*
X14678333Y-12641381D01*
X14678333Y-12641381D02*
X14678333Y-12584238D01*
X14678333Y-12584238D02*
X14687857Y-12565190D01*
X14687857Y-12565190D02*
X14697381Y-12555667D01*
X14697381Y-12555667D02*
X14716429Y-12546143D01*
X14716429Y-12546143D02*
X14745000Y-12546143D01*
X14745000Y-12546143D02*
X14764048Y-12555667D01*
X14764048Y-12555667D02*
X14773572Y-12565190D01*
X14773572Y-12565190D02*
X14783095Y-12584238D01*
X14783095Y-12584238D02*
X14783095Y-12641381D01*
X14783095Y-12641381D02*
X14773572Y-12660428D01*
X14773572Y-12660428D02*
X14764048Y-12669952D01*
X14764048Y-12669952D02*
X14745000Y-12679476D01*
X14745000Y-12679476D02*
X14716429Y-12679476D01*
X14897381Y-12679476D02*
X14878333Y-12669952D01*
X14878333Y-12669952D02*
X14868810Y-12650905D01*
X14868810Y-12650905D02*
X14868810Y-12479476D01*
X15049762Y-12669952D02*
X15030714Y-12679476D01*
X15030714Y-12679476D02*
X14992619Y-12679476D01*
X14992619Y-12679476D02*
X14973572Y-12669952D01*
X14973572Y-12669952D02*
X14964048Y-12650905D01*
X14964048Y-12650905D02*
X14964048Y-12574714D01*
X14964048Y-12574714D02*
X14973572Y-12555667D01*
X14973572Y-12555667D02*
X14992619Y-12546143D01*
X14992619Y-12546143D02*
X15030714Y-12546143D01*
X15030714Y-12546143D02*
X15049762Y-12555667D01*
X15049762Y-12555667D02*
X15059286Y-12574714D01*
X15059286Y-12574714D02*
X15059286Y-12593762D01*
X15059286Y-12593762D02*
X14964048Y-12612809D01*
X15135476Y-12669952D02*
X15154524Y-12679476D01*
X15154524Y-12679476D02*
X15192619Y-12679476D01*
X15192619Y-12679476D02*
X15211667Y-12669952D01*
X15211667Y-12669952D02*
X15221191Y-12650905D01*
X15221191Y-12650905D02*
X15221191Y-12641381D01*
X15221191Y-12641381D02*
X15211667Y-12622333D01*
X15211667Y-12622333D02*
X15192619Y-12612809D01*
X15192619Y-12612809D02*
X15164048Y-12612809D01*
X15164048Y-12612809D02*
X15145000Y-12603286D01*
X15145000Y-12603286D02*
X15135476Y-12584238D01*
X15135476Y-12584238D02*
X15135476Y-12574714D01*
X15135476Y-12574714D02*
X15145000Y-12555667D01*
X15145000Y-12555667D02*
X15164048Y-12546143D01*
X15164048Y-12546143D02*
X15192619Y-12546143D01*
X15192619Y-12546143D02*
X15211667Y-12555667D01*
X15287857Y-12755667D02*
X15297381Y-12746143D01*
X15297381Y-12746143D02*
X15316429Y-12717571D01*
X15316429Y-12717571D02*
X15325953Y-12698524D01*
X15325953Y-12698524D02*
X15335476Y-12669952D01*
X15335476Y-12669952D02*
X15345000Y-12622333D01*
X15345000Y-12622333D02*
X15345000Y-12584238D01*
X15345000Y-12584238D02*
X15335476Y-12536619D01*
X15335476Y-12536619D02*
X15325953Y-12508048D01*
X15325953Y-12508048D02*
X15316429Y-12489000D01*
X15316429Y-12489000D02*
X15297381Y-12460428D01*
X15297381Y-12460428D02*
X15287857Y-12450905D01*
M02*
