%TF.GenerationSoftware,KiCad,Pcbnew,(7.0.0-0)*%
%TF.CreationDate,2023-03-06T18:30:22+00:00*%
%TF.ProjectId,AuxBoard,41757842-6f61-4726-942e-6b696361645f,rev?*%
%TF.SameCoordinates,Original*%
%TF.FileFunction,Drillmap*%
%TF.FilePolarity,Positive*%
%FSLAX45Y45*%
G04 Gerber Fmt 4.5, Leading zero omitted, Abs format (unit mm)*
G04 Created by KiCad (PCBNEW (7.0.0-0)) date 2023-03-06 18:30:22*
%MOMM*%
%LPD*%
G01*
G04 APERTURE LIST*
%ADD10C,0.200000*%
%ADD11C,0.270000*%
%ADD12C,0.300000*%
G04 APERTURE END LIST*
D10*
X10475000Y-4975000D02*
X19000000Y-4975000D01*
X19000000Y-4975000D02*
X19000000Y-10900000D01*
X19000000Y-10900000D02*
X10475000Y-10900000D01*
X10475000Y-10900000D02*
X10475000Y-4975000D01*
D11*
X12715000Y-5477500D02*
X12985000Y-5747500D01*
X12985000Y-5477500D02*
X12715000Y-5747500D01*
X12715000Y-7802500D02*
X12985000Y-8072500D01*
X12985000Y-7802500D02*
X12715000Y-8072500D01*
X12715000Y-10402500D02*
X12985000Y-10672500D01*
X12985000Y-10402500D02*
X12715000Y-10672500D01*
X18515000Y-5477500D02*
X18785000Y-5747500D01*
X18785000Y-5477500D02*
X18515000Y-5747500D01*
X18515000Y-7802500D02*
X18785000Y-8072500D01*
X18785000Y-7802500D02*
X18515000Y-8072500D01*
X18515000Y-10402500D02*
X18785000Y-10672500D01*
X18785000Y-10402500D02*
X18515000Y-10672500D01*
D12*
X11012500Y-5300000D02*
G75*
G03*
X11012500Y-5300000I-150000J0D01*
G01*
X11012500Y-9920000D02*
G75*
G03*
X11012500Y-9920000I-150000J0D01*
G01*
D10*
X10712619Y-11203476D02*
X10712619Y-11003476D01*
X10712619Y-11003476D02*
X10760238Y-11003476D01*
X10760238Y-11003476D02*
X10788810Y-11013000D01*
X10788810Y-11013000D02*
X10807857Y-11032048D01*
X10807857Y-11032048D02*
X10817381Y-11051095D01*
X10817381Y-11051095D02*
X10826905Y-11089190D01*
X10826905Y-11089190D02*
X10826905Y-11117762D01*
X10826905Y-11117762D02*
X10817381Y-11155857D01*
X10817381Y-11155857D02*
X10807857Y-11174905D01*
X10807857Y-11174905D02*
X10788810Y-11193952D01*
X10788810Y-11193952D02*
X10760238Y-11203476D01*
X10760238Y-11203476D02*
X10712619Y-11203476D01*
X10912619Y-11203476D02*
X10912619Y-11070143D01*
X10912619Y-11108238D02*
X10922143Y-11089190D01*
X10922143Y-11089190D02*
X10931667Y-11079667D01*
X10931667Y-11079667D02*
X10950714Y-11070143D01*
X10950714Y-11070143D02*
X10969762Y-11070143D01*
X11036429Y-11203476D02*
X11036429Y-11070143D01*
X11036429Y-11003476D02*
X11026905Y-11013000D01*
X11026905Y-11013000D02*
X11036429Y-11022524D01*
X11036429Y-11022524D02*
X11045952Y-11013000D01*
X11045952Y-11013000D02*
X11036429Y-11003476D01*
X11036429Y-11003476D02*
X11036429Y-11022524D01*
X11160238Y-11203476D02*
X11141190Y-11193952D01*
X11141190Y-11193952D02*
X11131667Y-11174905D01*
X11131667Y-11174905D02*
X11131667Y-11003476D01*
X11265000Y-11203476D02*
X11245952Y-11193952D01*
X11245952Y-11193952D02*
X11236428Y-11174905D01*
X11236428Y-11174905D02*
X11236428Y-11003476D01*
X11461190Y-11203476D02*
X11461190Y-11003476D01*
X11461190Y-11003476D02*
X11527857Y-11146333D01*
X11527857Y-11146333D02*
X11594524Y-11003476D01*
X11594524Y-11003476D02*
X11594524Y-11203476D01*
X11775476Y-11203476D02*
X11775476Y-11098714D01*
X11775476Y-11098714D02*
X11765952Y-11079667D01*
X11765952Y-11079667D02*
X11746905Y-11070143D01*
X11746905Y-11070143D02*
X11708809Y-11070143D01*
X11708809Y-11070143D02*
X11689762Y-11079667D01*
X11775476Y-11193952D02*
X11756428Y-11203476D01*
X11756428Y-11203476D02*
X11708809Y-11203476D01*
X11708809Y-11203476D02*
X11689762Y-11193952D01*
X11689762Y-11193952D02*
X11680238Y-11174905D01*
X11680238Y-11174905D02*
X11680238Y-11155857D01*
X11680238Y-11155857D02*
X11689762Y-11136810D01*
X11689762Y-11136810D02*
X11708809Y-11127286D01*
X11708809Y-11127286D02*
X11756428Y-11127286D01*
X11756428Y-11127286D02*
X11775476Y-11117762D01*
X11870714Y-11070143D02*
X11870714Y-11270143D01*
X11870714Y-11079667D02*
X11889762Y-11070143D01*
X11889762Y-11070143D02*
X11927857Y-11070143D01*
X11927857Y-11070143D02*
X11946905Y-11079667D01*
X11946905Y-11079667D02*
X11956428Y-11089190D01*
X11956428Y-11089190D02*
X11965952Y-11108238D01*
X11965952Y-11108238D02*
X11965952Y-11165381D01*
X11965952Y-11165381D02*
X11956428Y-11184429D01*
X11956428Y-11184429D02*
X11946905Y-11193952D01*
X11946905Y-11193952D02*
X11927857Y-11203476D01*
X11927857Y-11203476D02*
X11889762Y-11203476D01*
X11889762Y-11203476D02*
X11870714Y-11193952D01*
X12051667Y-11184429D02*
X12061190Y-11193952D01*
X12061190Y-11193952D02*
X12051667Y-11203476D01*
X12051667Y-11203476D02*
X12042143Y-11193952D01*
X12042143Y-11193952D02*
X12051667Y-11184429D01*
X12051667Y-11184429D02*
X12051667Y-11203476D01*
X12051667Y-11079667D02*
X12061190Y-11089190D01*
X12061190Y-11089190D02*
X12051667Y-11098714D01*
X12051667Y-11098714D02*
X12042143Y-11089190D01*
X12042143Y-11089190D02*
X12051667Y-11079667D01*
X12051667Y-11079667D02*
X12051667Y-11098714D01*
X10265000Y-11450000D02*
X10465000Y-11650000D01*
X10465000Y-11450000D02*
X10265000Y-11650000D01*
X10703095Y-11442524D02*
X10712619Y-11433000D01*
X10712619Y-11433000D02*
X10731667Y-11423476D01*
X10731667Y-11423476D02*
X10779286Y-11423476D01*
X10779286Y-11423476D02*
X10798333Y-11433000D01*
X10798333Y-11433000D02*
X10807857Y-11442524D01*
X10807857Y-11442524D02*
X10817381Y-11461571D01*
X10817381Y-11461571D02*
X10817381Y-11480619D01*
X10817381Y-11480619D02*
X10807857Y-11509190D01*
X10807857Y-11509190D02*
X10693571Y-11623476D01*
X10693571Y-11623476D02*
X10817381Y-11623476D01*
X10903095Y-11604428D02*
X10912619Y-11613952D01*
X10912619Y-11613952D02*
X10903095Y-11623476D01*
X10903095Y-11623476D02*
X10893571Y-11613952D01*
X10893571Y-11613952D02*
X10903095Y-11604428D01*
X10903095Y-11604428D02*
X10903095Y-11623476D01*
X10979286Y-11423476D02*
X11112619Y-11423476D01*
X11112619Y-11423476D02*
X11026905Y-11623476D01*
X11226905Y-11423476D02*
X11245952Y-11423476D01*
X11245952Y-11423476D02*
X11265000Y-11433000D01*
X11265000Y-11433000D02*
X11274524Y-11442524D01*
X11274524Y-11442524D02*
X11284048Y-11461571D01*
X11284048Y-11461571D02*
X11293571Y-11499667D01*
X11293571Y-11499667D02*
X11293571Y-11547286D01*
X11293571Y-11547286D02*
X11284048Y-11585381D01*
X11284048Y-11585381D02*
X11274524Y-11604428D01*
X11274524Y-11604428D02*
X11265000Y-11613952D01*
X11265000Y-11613952D02*
X11245952Y-11623476D01*
X11245952Y-11623476D02*
X11226905Y-11623476D01*
X11226905Y-11623476D02*
X11207857Y-11613952D01*
X11207857Y-11613952D02*
X11198333Y-11604428D01*
X11198333Y-11604428D02*
X11188809Y-11585381D01*
X11188809Y-11585381D02*
X11179286Y-11547286D01*
X11179286Y-11547286D02*
X11179286Y-11499667D01*
X11179286Y-11499667D02*
X11188809Y-11461571D01*
X11188809Y-11461571D02*
X11198333Y-11442524D01*
X11198333Y-11442524D02*
X11207857Y-11433000D01*
X11207857Y-11433000D02*
X11226905Y-11423476D01*
X11417381Y-11423476D02*
X11436429Y-11423476D01*
X11436429Y-11423476D02*
X11455476Y-11433000D01*
X11455476Y-11433000D02*
X11465000Y-11442524D01*
X11465000Y-11442524D02*
X11474524Y-11461571D01*
X11474524Y-11461571D02*
X11484048Y-11499667D01*
X11484048Y-11499667D02*
X11484048Y-11547286D01*
X11484048Y-11547286D02*
X11474524Y-11585381D01*
X11474524Y-11585381D02*
X11465000Y-11604428D01*
X11465000Y-11604428D02*
X11455476Y-11613952D01*
X11455476Y-11613952D02*
X11436429Y-11623476D01*
X11436429Y-11623476D02*
X11417381Y-11623476D01*
X11417381Y-11623476D02*
X11398333Y-11613952D01*
X11398333Y-11613952D02*
X11388809Y-11604428D01*
X11388809Y-11604428D02*
X11379286Y-11585381D01*
X11379286Y-11585381D02*
X11369762Y-11547286D01*
X11369762Y-11547286D02*
X11369762Y-11499667D01*
X11369762Y-11499667D02*
X11379286Y-11461571D01*
X11379286Y-11461571D02*
X11388809Y-11442524D01*
X11388809Y-11442524D02*
X11398333Y-11433000D01*
X11398333Y-11433000D02*
X11417381Y-11423476D01*
X11569762Y-11623476D02*
X11569762Y-11490143D01*
X11569762Y-11509190D02*
X11579286Y-11499667D01*
X11579286Y-11499667D02*
X11598333Y-11490143D01*
X11598333Y-11490143D02*
X11626905Y-11490143D01*
X11626905Y-11490143D02*
X11645952Y-11499667D01*
X11645952Y-11499667D02*
X11655476Y-11518714D01*
X11655476Y-11518714D02*
X11655476Y-11623476D01*
X11655476Y-11518714D02*
X11665000Y-11499667D01*
X11665000Y-11499667D02*
X11684048Y-11490143D01*
X11684048Y-11490143D02*
X11712619Y-11490143D01*
X11712619Y-11490143D02*
X11731667Y-11499667D01*
X11731667Y-11499667D02*
X11741190Y-11518714D01*
X11741190Y-11518714D02*
X11741190Y-11623476D01*
X11836429Y-11623476D02*
X11836429Y-11490143D01*
X11836429Y-11509190D02*
X11845952Y-11499667D01*
X11845952Y-11499667D02*
X11865000Y-11490143D01*
X11865000Y-11490143D02*
X11893571Y-11490143D01*
X11893571Y-11490143D02*
X11912619Y-11499667D01*
X11912619Y-11499667D02*
X11922143Y-11518714D01*
X11922143Y-11518714D02*
X11922143Y-11623476D01*
X11922143Y-11518714D02*
X11931667Y-11499667D01*
X11931667Y-11499667D02*
X11950714Y-11490143D01*
X11950714Y-11490143D02*
X11979286Y-11490143D01*
X11979286Y-11490143D02*
X11998333Y-11499667D01*
X11998333Y-11499667D02*
X12007857Y-11518714D01*
X12007857Y-11518714D02*
X12007857Y-11623476D01*
X12365952Y-11413952D02*
X12194524Y-11671095D01*
X12590714Y-11423476D02*
X12609762Y-11423476D01*
X12609762Y-11423476D02*
X12628810Y-11433000D01*
X12628810Y-11433000D02*
X12638333Y-11442524D01*
X12638333Y-11442524D02*
X12647857Y-11461571D01*
X12647857Y-11461571D02*
X12657381Y-11499667D01*
X12657381Y-11499667D02*
X12657381Y-11547286D01*
X12657381Y-11547286D02*
X12647857Y-11585381D01*
X12647857Y-11585381D02*
X12638333Y-11604428D01*
X12638333Y-11604428D02*
X12628810Y-11613952D01*
X12628810Y-11613952D02*
X12609762Y-11623476D01*
X12609762Y-11623476D02*
X12590714Y-11623476D01*
X12590714Y-11623476D02*
X12571667Y-11613952D01*
X12571667Y-11613952D02*
X12562143Y-11604428D01*
X12562143Y-11604428D02*
X12552619Y-11585381D01*
X12552619Y-11585381D02*
X12543095Y-11547286D01*
X12543095Y-11547286D02*
X12543095Y-11499667D01*
X12543095Y-11499667D02*
X12552619Y-11461571D01*
X12552619Y-11461571D02*
X12562143Y-11442524D01*
X12562143Y-11442524D02*
X12571667Y-11433000D01*
X12571667Y-11433000D02*
X12590714Y-11423476D01*
X12743095Y-11604428D02*
X12752619Y-11613952D01*
X12752619Y-11613952D02*
X12743095Y-11623476D01*
X12743095Y-11623476D02*
X12733571Y-11613952D01*
X12733571Y-11613952D02*
X12743095Y-11604428D01*
X12743095Y-11604428D02*
X12743095Y-11623476D01*
X12943095Y-11623476D02*
X12828810Y-11623476D01*
X12885952Y-11623476D02*
X12885952Y-11423476D01*
X12885952Y-11423476D02*
X12866905Y-11452048D01*
X12866905Y-11452048D02*
X12847857Y-11471095D01*
X12847857Y-11471095D02*
X12828810Y-11480619D01*
X13066905Y-11423476D02*
X13085952Y-11423476D01*
X13085952Y-11423476D02*
X13105000Y-11433000D01*
X13105000Y-11433000D02*
X13114524Y-11442524D01*
X13114524Y-11442524D02*
X13124048Y-11461571D01*
X13124048Y-11461571D02*
X13133571Y-11499667D01*
X13133571Y-11499667D02*
X13133571Y-11547286D01*
X13133571Y-11547286D02*
X13124048Y-11585381D01*
X13124048Y-11585381D02*
X13114524Y-11604428D01*
X13114524Y-11604428D02*
X13105000Y-11613952D01*
X13105000Y-11613952D02*
X13085952Y-11623476D01*
X13085952Y-11623476D02*
X13066905Y-11623476D01*
X13066905Y-11623476D02*
X13047857Y-11613952D01*
X13047857Y-11613952D02*
X13038333Y-11604428D01*
X13038333Y-11604428D02*
X13028810Y-11585381D01*
X13028810Y-11585381D02*
X13019286Y-11547286D01*
X13019286Y-11547286D02*
X13019286Y-11499667D01*
X13019286Y-11499667D02*
X13028810Y-11461571D01*
X13028810Y-11461571D02*
X13038333Y-11442524D01*
X13038333Y-11442524D02*
X13047857Y-11433000D01*
X13047857Y-11433000D02*
X13066905Y-11423476D01*
X13305000Y-11423476D02*
X13266905Y-11423476D01*
X13266905Y-11423476D02*
X13247857Y-11433000D01*
X13247857Y-11433000D02*
X13238333Y-11442524D01*
X13238333Y-11442524D02*
X13219286Y-11471095D01*
X13219286Y-11471095D02*
X13209762Y-11509190D01*
X13209762Y-11509190D02*
X13209762Y-11585381D01*
X13209762Y-11585381D02*
X13219286Y-11604428D01*
X13219286Y-11604428D02*
X13228810Y-11613952D01*
X13228810Y-11613952D02*
X13247857Y-11623476D01*
X13247857Y-11623476D02*
X13285952Y-11623476D01*
X13285952Y-11623476D02*
X13305000Y-11613952D01*
X13305000Y-11613952D02*
X13314524Y-11604428D01*
X13314524Y-11604428D02*
X13324048Y-11585381D01*
X13324048Y-11585381D02*
X13324048Y-11537762D01*
X13324048Y-11537762D02*
X13314524Y-11518714D01*
X13314524Y-11518714D02*
X13305000Y-11509190D01*
X13305000Y-11509190D02*
X13285952Y-11499667D01*
X13285952Y-11499667D02*
X13247857Y-11499667D01*
X13247857Y-11499667D02*
X13228810Y-11509190D01*
X13228810Y-11509190D02*
X13219286Y-11518714D01*
X13219286Y-11518714D02*
X13209762Y-11537762D01*
X13390714Y-11423476D02*
X13514524Y-11423476D01*
X13514524Y-11423476D02*
X13447857Y-11499667D01*
X13447857Y-11499667D02*
X13476429Y-11499667D01*
X13476429Y-11499667D02*
X13495476Y-11509190D01*
X13495476Y-11509190D02*
X13505000Y-11518714D01*
X13505000Y-11518714D02*
X13514524Y-11537762D01*
X13514524Y-11537762D02*
X13514524Y-11585381D01*
X13514524Y-11585381D02*
X13505000Y-11604428D01*
X13505000Y-11604428D02*
X13495476Y-11613952D01*
X13495476Y-11613952D02*
X13476429Y-11623476D01*
X13476429Y-11623476D02*
X13419286Y-11623476D01*
X13419286Y-11623476D02*
X13400238Y-11613952D01*
X13400238Y-11613952D02*
X13390714Y-11604428D01*
X13590714Y-11423476D02*
X13590714Y-11461571D01*
X13666905Y-11423476D02*
X13666905Y-11461571D01*
X13929762Y-11699667D02*
X13920238Y-11690143D01*
X13920238Y-11690143D02*
X13901191Y-11661571D01*
X13901191Y-11661571D02*
X13891667Y-11642524D01*
X13891667Y-11642524D02*
X13882143Y-11613952D01*
X13882143Y-11613952D02*
X13872619Y-11566333D01*
X13872619Y-11566333D02*
X13872619Y-11528238D01*
X13872619Y-11528238D02*
X13882143Y-11480619D01*
X13882143Y-11480619D02*
X13891667Y-11452048D01*
X13891667Y-11452048D02*
X13901191Y-11433000D01*
X13901191Y-11433000D02*
X13920238Y-11404428D01*
X13920238Y-11404428D02*
X13929762Y-11394905D01*
X14091667Y-11423476D02*
X14053571Y-11423476D01*
X14053571Y-11423476D02*
X14034524Y-11433000D01*
X14034524Y-11433000D02*
X14025000Y-11442524D01*
X14025000Y-11442524D02*
X14005952Y-11471095D01*
X14005952Y-11471095D02*
X13996429Y-11509190D01*
X13996429Y-11509190D02*
X13996429Y-11585381D01*
X13996429Y-11585381D02*
X14005952Y-11604428D01*
X14005952Y-11604428D02*
X14015476Y-11613952D01*
X14015476Y-11613952D02*
X14034524Y-11623476D01*
X14034524Y-11623476D02*
X14072619Y-11623476D01*
X14072619Y-11623476D02*
X14091667Y-11613952D01*
X14091667Y-11613952D02*
X14101191Y-11604428D01*
X14101191Y-11604428D02*
X14110714Y-11585381D01*
X14110714Y-11585381D02*
X14110714Y-11537762D01*
X14110714Y-11537762D02*
X14101191Y-11518714D01*
X14101191Y-11518714D02*
X14091667Y-11509190D01*
X14091667Y-11509190D02*
X14072619Y-11499667D01*
X14072619Y-11499667D02*
X14034524Y-11499667D01*
X14034524Y-11499667D02*
X14015476Y-11509190D01*
X14015476Y-11509190D02*
X14005952Y-11518714D01*
X14005952Y-11518714D02*
X13996429Y-11537762D01*
X14316429Y-11623476D02*
X14316429Y-11423476D01*
X14402143Y-11623476D02*
X14402143Y-11518714D01*
X14402143Y-11518714D02*
X14392619Y-11499667D01*
X14392619Y-11499667D02*
X14373572Y-11490143D01*
X14373572Y-11490143D02*
X14345000Y-11490143D01*
X14345000Y-11490143D02*
X14325952Y-11499667D01*
X14325952Y-11499667D02*
X14316429Y-11509190D01*
X14525952Y-11623476D02*
X14506905Y-11613952D01*
X14506905Y-11613952D02*
X14497381Y-11604428D01*
X14497381Y-11604428D02*
X14487857Y-11585381D01*
X14487857Y-11585381D02*
X14487857Y-11528238D01*
X14487857Y-11528238D02*
X14497381Y-11509190D01*
X14497381Y-11509190D02*
X14506905Y-11499667D01*
X14506905Y-11499667D02*
X14525952Y-11490143D01*
X14525952Y-11490143D02*
X14554524Y-11490143D01*
X14554524Y-11490143D02*
X14573572Y-11499667D01*
X14573572Y-11499667D02*
X14583095Y-11509190D01*
X14583095Y-11509190D02*
X14592619Y-11528238D01*
X14592619Y-11528238D02*
X14592619Y-11585381D01*
X14592619Y-11585381D02*
X14583095Y-11604428D01*
X14583095Y-11604428D02*
X14573572Y-11613952D01*
X14573572Y-11613952D02*
X14554524Y-11623476D01*
X14554524Y-11623476D02*
X14525952Y-11623476D01*
X14706905Y-11623476D02*
X14687857Y-11613952D01*
X14687857Y-11613952D02*
X14678333Y-11594905D01*
X14678333Y-11594905D02*
X14678333Y-11423476D01*
X14859286Y-11613952D02*
X14840238Y-11623476D01*
X14840238Y-11623476D02*
X14802143Y-11623476D01*
X14802143Y-11623476D02*
X14783095Y-11613952D01*
X14783095Y-11613952D02*
X14773572Y-11594905D01*
X14773572Y-11594905D02*
X14773572Y-11518714D01*
X14773572Y-11518714D02*
X14783095Y-11499667D01*
X14783095Y-11499667D02*
X14802143Y-11490143D01*
X14802143Y-11490143D02*
X14840238Y-11490143D01*
X14840238Y-11490143D02*
X14859286Y-11499667D01*
X14859286Y-11499667D02*
X14868810Y-11518714D01*
X14868810Y-11518714D02*
X14868810Y-11537762D01*
X14868810Y-11537762D02*
X14773572Y-11556809D01*
X14945000Y-11613952D02*
X14964048Y-11623476D01*
X14964048Y-11623476D02*
X15002143Y-11623476D01*
X15002143Y-11623476D02*
X15021191Y-11613952D01*
X15021191Y-11613952D02*
X15030714Y-11594905D01*
X15030714Y-11594905D02*
X15030714Y-11585381D01*
X15030714Y-11585381D02*
X15021191Y-11566333D01*
X15021191Y-11566333D02*
X15002143Y-11556809D01*
X15002143Y-11556809D02*
X14973572Y-11556809D01*
X14973572Y-11556809D02*
X14954524Y-11547286D01*
X14954524Y-11547286D02*
X14945000Y-11528238D01*
X14945000Y-11528238D02*
X14945000Y-11518714D01*
X14945000Y-11518714D02*
X14954524Y-11499667D01*
X14954524Y-11499667D02*
X14973572Y-11490143D01*
X14973572Y-11490143D02*
X15002143Y-11490143D01*
X15002143Y-11490143D02*
X15021191Y-11499667D01*
X15097381Y-11699667D02*
X15106905Y-11690143D01*
X15106905Y-11690143D02*
X15125953Y-11661571D01*
X15125953Y-11661571D02*
X15135476Y-11642524D01*
X15135476Y-11642524D02*
X15145000Y-11613952D01*
X15145000Y-11613952D02*
X15154524Y-11566333D01*
X15154524Y-11566333D02*
X15154524Y-11528238D01*
X15154524Y-11528238D02*
X15145000Y-11480619D01*
X15145000Y-11480619D02*
X15135476Y-11452048D01*
X15135476Y-11452048D02*
X15125953Y-11433000D01*
X15125953Y-11433000D02*
X15106905Y-11404428D01*
X15106905Y-11404428D02*
X15097381Y-11394905D01*
X15426905Y-11699667D02*
X15417381Y-11690143D01*
X15417381Y-11690143D02*
X15398333Y-11661571D01*
X15398333Y-11661571D02*
X15388810Y-11642524D01*
X15388810Y-11642524D02*
X15379286Y-11613952D01*
X15379286Y-11613952D02*
X15369762Y-11566333D01*
X15369762Y-11566333D02*
X15369762Y-11528238D01*
X15369762Y-11528238D02*
X15379286Y-11480619D01*
X15379286Y-11480619D02*
X15388810Y-11452048D01*
X15388810Y-11452048D02*
X15398333Y-11433000D01*
X15398333Y-11433000D02*
X15417381Y-11404428D01*
X15417381Y-11404428D02*
X15426905Y-11394905D01*
X15503095Y-11490143D02*
X15503095Y-11623476D01*
X15503095Y-11509190D02*
X15512619Y-11499667D01*
X15512619Y-11499667D02*
X15531667Y-11490143D01*
X15531667Y-11490143D02*
X15560238Y-11490143D01*
X15560238Y-11490143D02*
X15579286Y-11499667D01*
X15579286Y-11499667D02*
X15588810Y-11518714D01*
X15588810Y-11518714D02*
X15588810Y-11623476D01*
X15712619Y-11623476D02*
X15693572Y-11613952D01*
X15693572Y-11613952D02*
X15684048Y-11604428D01*
X15684048Y-11604428D02*
X15674524Y-11585381D01*
X15674524Y-11585381D02*
X15674524Y-11528238D01*
X15674524Y-11528238D02*
X15684048Y-11509190D01*
X15684048Y-11509190D02*
X15693572Y-11499667D01*
X15693572Y-11499667D02*
X15712619Y-11490143D01*
X15712619Y-11490143D02*
X15741191Y-11490143D01*
X15741191Y-11490143D02*
X15760238Y-11499667D01*
X15760238Y-11499667D02*
X15769762Y-11509190D01*
X15769762Y-11509190D02*
X15779286Y-11528238D01*
X15779286Y-11528238D02*
X15779286Y-11585381D01*
X15779286Y-11585381D02*
X15769762Y-11604428D01*
X15769762Y-11604428D02*
X15760238Y-11613952D01*
X15760238Y-11613952D02*
X15741191Y-11623476D01*
X15741191Y-11623476D02*
X15712619Y-11623476D01*
X15836429Y-11490143D02*
X15912619Y-11490143D01*
X15865000Y-11423476D02*
X15865000Y-11594905D01*
X15865000Y-11594905D02*
X15874524Y-11613952D01*
X15874524Y-11613952D02*
X15893572Y-11623476D01*
X15893572Y-11623476D02*
X15912619Y-11623476D01*
X16099286Y-11490143D02*
X16099286Y-11690143D01*
X16099286Y-11499667D02*
X16118333Y-11490143D01*
X16118333Y-11490143D02*
X16156429Y-11490143D01*
X16156429Y-11490143D02*
X16175476Y-11499667D01*
X16175476Y-11499667D02*
X16185000Y-11509190D01*
X16185000Y-11509190D02*
X16194524Y-11528238D01*
X16194524Y-11528238D02*
X16194524Y-11585381D01*
X16194524Y-11585381D02*
X16185000Y-11604428D01*
X16185000Y-11604428D02*
X16175476Y-11613952D01*
X16175476Y-11613952D02*
X16156429Y-11623476D01*
X16156429Y-11623476D02*
X16118333Y-11623476D01*
X16118333Y-11623476D02*
X16099286Y-11613952D01*
X16308810Y-11623476D02*
X16289762Y-11613952D01*
X16289762Y-11613952D02*
X16280238Y-11594905D01*
X16280238Y-11594905D02*
X16280238Y-11423476D01*
X16470714Y-11623476D02*
X16470714Y-11518714D01*
X16470714Y-11518714D02*
X16461191Y-11499667D01*
X16461191Y-11499667D02*
X16442143Y-11490143D01*
X16442143Y-11490143D02*
X16404048Y-11490143D01*
X16404048Y-11490143D02*
X16385000Y-11499667D01*
X16470714Y-11613952D02*
X16451667Y-11623476D01*
X16451667Y-11623476D02*
X16404048Y-11623476D01*
X16404048Y-11623476D02*
X16385000Y-11613952D01*
X16385000Y-11613952D02*
X16375476Y-11594905D01*
X16375476Y-11594905D02*
X16375476Y-11575857D01*
X16375476Y-11575857D02*
X16385000Y-11556809D01*
X16385000Y-11556809D02*
X16404048Y-11547286D01*
X16404048Y-11547286D02*
X16451667Y-11547286D01*
X16451667Y-11547286D02*
X16470714Y-11537762D01*
X16537381Y-11490143D02*
X16613572Y-11490143D01*
X16565953Y-11423476D02*
X16565953Y-11594905D01*
X16565953Y-11594905D02*
X16575476Y-11613952D01*
X16575476Y-11613952D02*
X16594524Y-11623476D01*
X16594524Y-11623476D02*
X16613572Y-11623476D01*
X16756429Y-11613952D02*
X16737381Y-11623476D01*
X16737381Y-11623476D02*
X16699286Y-11623476D01*
X16699286Y-11623476D02*
X16680238Y-11613952D01*
X16680238Y-11613952D02*
X16670714Y-11594905D01*
X16670714Y-11594905D02*
X16670714Y-11518714D01*
X16670714Y-11518714D02*
X16680238Y-11499667D01*
X16680238Y-11499667D02*
X16699286Y-11490143D01*
X16699286Y-11490143D02*
X16737381Y-11490143D01*
X16737381Y-11490143D02*
X16756429Y-11499667D01*
X16756429Y-11499667D02*
X16765953Y-11518714D01*
X16765953Y-11518714D02*
X16765953Y-11537762D01*
X16765953Y-11537762D02*
X16670714Y-11556809D01*
X16937381Y-11623476D02*
X16937381Y-11423476D01*
X16937381Y-11613952D02*
X16918334Y-11623476D01*
X16918334Y-11623476D02*
X16880238Y-11623476D01*
X16880238Y-11623476D02*
X16861191Y-11613952D01*
X16861191Y-11613952D02*
X16851667Y-11604428D01*
X16851667Y-11604428D02*
X16842143Y-11585381D01*
X16842143Y-11585381D02*
X16842143Y-11528238D01*
X16842143Y-11528238D02*
X16851667Y-11509190D01*
X16851667Y-11509190D02*
X16861191Y-11499667D01*
X16861191Y-11499667D02*
X16880238Y-11490143D01*
X16880238Y-11490143D02*
X16918334Y-11490143D01*
X16918334Y-11490143D02*
X16937381Y-11499667D01*
X17013572Y-11699667D02*
X17023096Y-11690143D01*
X17023096Y-11690143D02*
X17042143Y-11661571D01*
X17042143Y-11661571D02*
X17051667Y-11642524D01*
X17051667Y-11642524D02*
X17061191Y-11613952D01*
X17061191Y-11613952D02*
X17070715Y-11566333D01*
X17070715Y-11566333D02*
X17070715Y-11528238D01*
X17070715Y-11528238D02*
X17061191Y-11480619D01*
X17061191Y-11480619D02*
X17051667Y-11452048D01*
X17051667Y-11452048D02*
X17042143Y-11433000D01*
X17042143Y-11433000D02*
X17023096Y-11404428D01*
X17023096Y-11404428D02*
X17013572Y-11394905D01*
X10465000Y-11870000D02*
G75*
G03*
X10465000Y-11870000I-100000J0D01*
G01*
X10693571Y-11743476D02*
X10817381Y-11743476D01*
X10817381Y-11743476D02*
X10750714Y-11819667D01*
X10750714Y-11819667D02*
X10779286Y-11819667D01*
X10779286Y-11819667D02*
X10798333Y-11829190D01*
X10798333Y-11829190D02*
X10807857Y-11838714D01*
X10807857Y-11838714D02*
X10817381Y-11857762D01*
X10817381Y-11857762D02*
X10817381Y-11905381D01*
X10817381Y-11905381D02*
X10807857Y-11924428D01*
X10807857Y-11924428D02*
X10798333Y-11933952D01*
X10798333Y-11933952D02*
X10779286Y-11943476D01*
X10779286Y-11943476D02*
X10722143Y-11943476D01*
X10722143Y-11943476D02*
X10703095Y-11933952D01*
X10703095Y-11933952D02*
X10693571Y-11924428D01*
X10903095Y-11924428D02*
X10912619Y-11933952D01*
X10912619Y-11933952D02*
X10903095Y-11943476D01*
X10903095Y-11943476D02*
X10893571Y-11933952D01*
X10893571Y-11933952D02*
X10903095Y-11924428D01*
X10903095Y-11924428D02*
X10903095Y-11943476D01*
X11036429Y-11743476D02*
X11055476Y-11743476D01*
X11055476Y-11743476D02*
X11074524Y-11753000D01*
X11074524Y-11753000D02*
X11084048Y-11762524D01*
X11084048Y-11762524D02*
X11093571Y-11781571D01*
X11093571Y-11781571D02*
X11103095Y-11819667D01*
X11103095Y-11819667D02*
X11103095Y-11867286D01*
X11103095Y-11867286D02*
X11093571Y-11905381D01*
X11093571Y-11905381D02*
X11084048Y-11924428D01*
X11084048Y-11924428D02*
X11074524Y-11933952D01*
X11074524Y-11933952D02*
X11055476Y-11943476D01*
X11055476Y-11943476D02*
X11036429Y-11943476D01*
X11036429Y-11943476D02*
X11017381Y-11933952D01*
X11017381Y-11933952D02*
X11007857Y-11924428D01*
X11007857Y-11924428D02*
X10998333Y-11905381D01*
X10998333Y-11905381D02*
X10988810Y-11867286D01*
X10988810Y-11867286D02*
X10988810Y-11819667D01*
X10988810Y-11819667D02*
X10998333Y-11781571D01*
X10998333Y-11781571D02*
X11007857Y-11762524D01*
X11007857Y-11762524D02*
X11017381Y-11753000D01*
X11017381Y-11753000D02*
X11036429Y-11743476D01*
X11226905Y-11743476D02*
X11245952Y-11743476D01*
X11245952Y-11743476D02*
X11265000Y-11753000D01*
X11265000Y-11753000D02*
X11274524Y-11762524D01*
X11274524Y-11762524D02*
X11284048Y-11781571D01*
X11284048Y-11781571D02*
X11293571Y-11819667D01*
X11293571Y-11819667D02*
X11293571Y-11867286D01*
X11293571Y-11867286D02*
X11284048Y-11905381D01*
X11284048Y-11905381D02*
X11274524Y-11924428D01*
X11274524Y-11924428D02*
X11265000Y-11933952D01*
X11265000Y-11933952D02*
X11245952Y-11943476D01*
X11245952Y-11943476D02*
X11226905Y-11943476D01*
X11226905Y-11943476D02*
X11207857Y-11933952D01*
X11207857Y-11933952D02*
X11198333Y-11924428D01*
X11198333Y-11924428D02*
X11188809Y-11905381D01*
X11188809Y-11905381D02*
X11179286Y-11867286D01*
X11179286Y-11867286D02*
X11179286Y-11819667D01*
X11179286Y-11819667D02*
X11188809Y-11781571D01*
X11188809Y-11781571D02*
X11198333Y-11762524D01*
X11198333Y-11762524D02*
X11207857Y-11753000D01*
X11207857Y-11753000D02*
X11226905Y-11743476D01*
X11417381Y-11743476D02*
X11436429Y-11743476D01*
X11436429Y-11743476D02*
X11455476Y-11753000D01*
X11455476Y-11753000D02*
X11465000Y-11762524D01*
X11465000Y-11762524D02*
X11474524Y-11781571D01*
X11474524Y-11781571D02*
X11484048Y-11819667D01*
X11484048Y-11819667D02*
X11484048Y-11867286D01*
X11484048Y-11867286D02*
X11474524Y-11905381D01*
X11474524Y-11905381D02*
X11465000Y-11924428D01*
X11465000Y-11924428D02*
X11455476Y-11933952D01*
X11455476Y-11933952D02*
X11436429Y-11943476D01*
X11436429Y-11943476D02*
X11417381Y-11943476D01*
X11417381Y-11943476D02*
X11398333Y-11933952D01*
X11398333Y-11933952D02*
X11388809Y-11924428D01*
X11388809Y-11924428D02*
X11379286Y-11905381D01*
X11379286Y-11905381D02*
X11369762Y-11867286D01*
X11369762Y-11867286D02*
X11369762Y-11819667D01*
X11369762Y-11819667D02*
X11379286Y-11781571D01*
X11379286Y-11781571D02*
X11388809Y-11762524D01*
X11388809Y-11762524D02*
X11398333Y-11753000D01*
X11398333Y-11753000D02*
X11417381Y-11743476D01*
X11569762Y-11943476D02*
X11569762Y-11810143D01*
X11569762Y-11829190D02*
X11579286Y-11819667D01*
X11579286Y-11819667D02*
X11598333Y-11810143D01*
X11598333Y-11810143D02*
X11626905Y-11810143D01*
X11626905Y-11810143D02*
X11645952Y-11819667D01*
X11645952Y-11819667D02*
X11655476Y-11838714D01*
X11655476Y-11838714D02*
X11655476Y-11943476D01*
X11655476Y-11838714D02*
X11665000Y-11819667D01*
X11665000Y-11819667D02*
X11684048Y-11810143D01*
X11684048Y-11810143D02*
X11712619Y-11810143D01*
X11712619Y-11810143D02*
X11731667Y-11819667D01*
X11731667Y-11819667D02*
X11741190Y-11838714D01*
X11741190Y-11838714D02*
X11741190Y-11943476D01*
X11836429Y-11943476D02*
X11836429Y-11810143D01*
X11836429Y-11829190D02*
X11845952Y-11819667D01*
X11845952Y-11819667D02*
X11865000Y-11810143D01*
X11865000Y-11810143D02*
X11893571Y-11810143D01*
X11893571Y-11810143D02*
X11912619Y-11819667D01*
X11912619Y-11819667D02*
X11922143Y-11838714D01*
X11922143Y-11838714D02*
X11922143Y-11943476D01*
X11922143Y-11838714D02*
X11931667Y-11819667D01*
X11931667Y-11819667D02*
X11950714Y-11810143D01*
X11950714Y-11810143D02*
X11979286Y-11810143D01*
X11979286Y-11810143D02*
X11998333Y-11819667D01*
X11998333Y-11819667D02*
X12007857Y-11838714D01*
X12007857Y-11838714D02*
X12007857Y-11943476D01*
X12365952Y-11733952D02*
X12194524Y-11991095D01*
X12590714Y-11743476D02*
X12609762Y-11743476D01*
X12609762Y-11743476D02*
X12628810Y-11753000D01*
X12628810Y-11753000D02*
X12638333Y-11762524D01*
X12638333Y-11762524D02*
X12647857Y-11781571D01*
X12647857Y-11781571D02*
X12657381Y-11819667D01*
X12657381Y-11819667D02*
X12657381Y-11867286D01*
X12657381Y-11867286D02*
X12647857Y-11905381D01*
X12647857Y-11905381D02*
X12638333Y-11924428D01*
X12638333Y-11924428D02*
X12628810Y-11933952D01*
X12628810Y-11933952D02*
X12609762Y-11943476D01*
X12609762Y-11943476D02*
X12590714Y-11943476D01*
X12590714Y-11943476D02*
X12571667Y-11933952D01*
X12571667Y-11933952D02*
X12562143Y-11924428D01*
X12562143Y-11924428D02*
X12552619Y-11905381D01*
X12552619Y-11905381D02*
X12543095Y-11867286D01*
X12543095Y-11867286D02*
X12543095Y-11819667D01*
X12543095Y-11819667D02*
X12552619Y-11781571D01*
X12552619Y-11781571D02*
X12562143Y-11762524D01*
X12562143Y-11762524D02*
X12571667Y-11753000D01*
X12571667Y-11753000D02*
X12590714Y-11743476D01*
X12743095Y-11924428D02*
X12752619Y-11933952D01*
X12752619Y-11933952D02*
X12743095Y-11943476D01*
X12743095Y-11943476D02*
X12733571Y-11933952D01*
X12733571Y-11933952D02*
X12743095Y-11924428D01*
X12743095Y-11924428D02*
X12743095Y-11943476D01*
X12943095Y-11943476D02*
X12828810Y-11943476D01*
X12885952Y-11943476D02*
X12885952Y-11743476D01*
X12885952Y-11743476D02*
X12866905Y-11772048D01*
X12866905Y-11772048D02*
X12847857Y-11791095D01*
X12847857Y-11791095D02*
X12828810Y-11800619D01*
X13133571Y-11943476D02*
X13019286Y-11943476D01*
X13076429Y-11943476D02*
X13076429Y-11743476D01*
X13076429Y-11743476D02*
X13057381Y-11772048D01*
X13057381Y-11772048D02*
X13038333Y-11791095D01*
X13038333Y-11791095D02*
X13019286Y-11800619D01*
X13247857Y-11829190D02*
X13228810Y-11819667D01*
X13228810Y-11819667D02*
X13219286Y-11810143D01*
X13219286Y-11810143D02*
X13209762Y-11791095D01*
X13209762Y-11791095D02*
X13209762Y-11781571D01*
X13209762Y-11781571D02*
X13219286Y-11762524D01*
X13219286Y-11762524D02*
X13228810Y-11753000D01*
X13228810Y-11753000D02*
X13247857Y-11743476D01*
X13247857Y-11743476D02*
X13285952Y-11743476D01*
X13285952Y-11743476D02*
X13305000Y-11753000D01*
X13305000Y-11753000D02*
X13314524Y-11762524D01*
X13314524Y-11762524D02*
X13324048Y-11781571D01*
X13324048Y-11781571D02*
X13324048Y-11791095D01*
X13324048Y-11791095D02*
X13314524Y-11810143D01*
X13314524Y-11810143D02*
X13305000Y-11819667D01*
X13305000Y-11819667D02*
X13285952Y-11829190D01*
X13285952Y-11829190D02*
X13247857Y-11829190D01*
X13247857Y-11829190D02*
X13228810Y-11838714D01*
X13228810Y-11838714D02*
X13219286Y-11848238D01*
X13219286Y-11848238D02*
X13209762Y-11867286D01*
X13209762Y-11867286D02*
X13209762Y-11905381D01*
X13209762Y-11905381D02*
X13219286Y-11924428D01*
X13219286Y-11924428D02*
X13228810Y-11933952D01*
X13228810Y-11933952D02*
X13247857Y-11943476D01*
X13247857Y-11943476D02*
X13285952Y-11943476D01*
X13285952Y-11943476D02*
X13305000Y-11933952D01*
X13305000Y-11933952D02*
X13314524Y-11924428D01*
X13314524Y-11924428D02*
X13324048Y-11905381D01*
X13324048Y-11905381D02*
X13324048Y-11867286D01*
X13324048Y-11867286D02*
X13314524Y-11848238D01*
X13314524Y-11848238D02*
X13305000Y-11838714D01*
X13305000Y-11838714D02*
X13285952Y-11829190D01*
X13514524Y-11943476D02*
X13400238Y-11943476D01*
X13457381Y-11943476D02*
X13457381Y-11743476D01*
X13457381Y-11743476D02*
X13438333Y-11772048D01*
X13438333Y-11772048D02*
X13419286Y-11791095D01*
X13419286Y-11791095D02*
X13400238Y-11800619D01*
X13590714Y-11743476D02*
X13590714Y-11781571D01*
X13666905Y-11743476D02*
X13666905Y-11781571D01*
X13929762Y-12019667D02*
X13920238Y-12010143D01*
X13920238Y-12010143D02*
X13901191Y-11981571D01*
X13901191Y-11981571D02*
X13891667Y-11962524D01*
X13891667Y-11962524D02*
X13882143Y-11933952D01*
X13882143Y-11933952D02*
X13872619Y-11886333D01*
X13872619Y-11886333D02*
X13872619Y-11848238D01*
X13872619Y-11848238D02*
X13882143Y-11800619D01*
X13882143Y-11800619D02*
X13891667Y-11772048D01*
X13891667Y-11772048D02*
X13901191Y-11753000D01*
X13901191Y-11753000D02*
X13920238Y-11724428D01*
X13920238Y-11724428D02*
X13929762Y-11714905D01*
X13996429Y-11762524D02*
X14005952Y-11753000D01*
X14005952Y-11753000D02*
X14025000Y-11743476D01*
X14025000Y-11743476D02*
X14072619Y-11743476D01*
X14072619Y-11743476D02*
X14091667Y-11753000D01*
X14091667Y-11753000D02*
X14101191Y-11762524D01*
X14101191Y-11762524D02*
X14110714Y-11781571D01*
X14110714Y-11781571D02*
X14110714Y-11800619D01*
X14110714Y-11800619D02*
X14101191Y-11829190D01*
X14101191Y-11829190D02*
X13986905Y-11943476D01*
X13986905Y-11943476D02*
X14110714Y-11943476D01*
X14316429Y-11943476D02*
X14316429Y-11743476D01*
X14402143Y-11943476D02*
X14402143Y-11838714D01*
X14402143Y-11838714D02*
X14392619Y-11819667D01*
X14392619Y-11819667D02*
X14373572Y-11810143D01*
X14373572Y-11810143D02*
X14345000Y-11810143D01*
X14345000Y-11810143D02*
X14325952Y-11819667D01*
X14325952Y-11819667D02*
X14316429Y-11829190D01*
X14525952Y-11943476D02*
X14506905Y-11933952D01*
X14506905Y-11933952D02*
X14497381Y-11924428D01*
X14497381Y-11924428D02*
X14487857Y-11905381D01*
X14487857Y-11905381D02*
X14487857Y-11848238D01*
X14487857Y-11848238D02*
X14497381Y-11829190D01*
X14497381Y-11829190D02*
X14506905Y-11819667D01*
X14506905Y-11819667D02*
X14525952Y-11810143D01*
X14525952Y-11810143D02*
X14554524Y-11810143D01*
X14554524Y-11810143D02*
X14573572Y-11819667D01*
X14573572Y-11819667D02*
X14583095Y-11829190D01*
X14583095Y-11829190D02*
X14592619Y-11848238D01*
X14592619Y-11848238D02*
X14592619Y-11905381D01*
X14592619Y-11905381D02*
X14583095Y-11924428D01*
X14583095Y-11924428D02*
X14573572Y-11933952D01*
X14573572Y-11933952D02*
X14554524Y-11943476D01*
X14554524Y-11943476D02*
X14525952Y-11943476D01*
X14706905Y-11943476D02*
X14687857Y-11933952D01*
X14687857Y-11933952D02*
X14678333Y-11914905D01*
X14678333Y-11914905D02*
X14678333Y-11743476D01*
X14859286Y-11933952D02*
X14840238Y-11943476D01*
X14840238Y-11943476D02*
X14802143Y-11943476D01*
X14802143Y-11943476D02*
X14783095Y-11933952D01*
X14783095Y-11933952D02*
X14773572Y-11914905D01*
X14773572Y-11914905D02*
X14773572Y-11838714D01*
X14773572Y-11838714D02*
X14783095Y-11819667D01*
X14783095Y-11819667D02*
X14802143Y-11810143D01*
X14802143Y-11810143D02*
X14840238Y-11810143D01*
X14840238Y-11810143D02*
X14859286Y-11819667D01*
X14859286Y-11819667D02*
X14868810Y-11838714D01*
X14868810Y-11838714D02*
X14868810Y-11857762D01*
X14868810Y-11857762D02*
X14773572Y-11876809D01*
X14945000Y-11933952D02*
X14964048Y-11943476D01*
X14964048Y-11943476D02*
X15002143Y-11943476D01*
X15002143Y-11943476D02*
X15021191Y-11933952D01*
X15021191Y-11933952D02*
X15030714Y-11914905D01*
X15030714Y-11914905D02*
X15030714Y-11905381D01*
X15030714Y-11905381D02*
X15021191Y-11886333D01*
X15021191Y-11886333D02*
X15002143Y-11876809D01*
X15002143Y-11876809D02*
X14973572Y-11876809D01*
X14973572Y-11876809D02*
X14954524Y-11867286D01*
X14954524Y-11867286D02*
X14945000Y-11848238D01*
X14945000Y-11848238D02*
X14945000Y-11838714D01*
X14945000Y-11838714D02*
X14954524Y-11819667D01*
X14954524Y-11819667D02*
X14973572Y-11810143D01*
X14973572Y-11810143D02*
X15002143Y-11810143D01*
X15002143Y-11810143D02*
X15021191Y-11819667D01*
X15097381Y-12019667D02*
X15106905Y-12010143D01*
X15106905Y-12010143D02*
X15125953Y-11981571D01*
X15125953Y-11981571D02*
X15135476Y-11962524D01*
X15135476Y-11962524D02*
X15145000Y-11933952D01*
X15145000Y-11933952D02*
X15154524Y-11886333D01*
X15154524Y-11886333D02*
X15154524Y-11848238D01*
X15154524Y-11848238D02*
X15145000Y-11800619D01*
X15145000Y-11800619D02*
X15135476Y-11772048D01*
X15135476Y-11772048D02*
X15125953Y-11753000D01*
X15125953Y-11753000D02*
X15106905Y-11724428D01*
X15106905Y-11724428D02*
X15097381Y-11714905D01*
X15426905Y-12019667D02*
X15417381Y-12010143D01*
X15417381Y-12010143D02*
X15398333Y-11981571D01*
X15398333Y-11981571D02*
X15388810Y-11962524D01*
X15388810Y-11962524D02*
X15379286Y-11933952D01*
X15379286Y-11933952D02*
X15369762Y-11886333D01*
X15369762Y-11886333D02*
X15369762Y-11848238D01*
X15369762Y-11848238D02*
X15379286Y-11800619D01*
X15379286Y-11800619D02*
X15388810Y-11772048D01*
X15388810Y-11772048D02*
X15398333Y-11753000D01*
X15398333Y-11753000D02*
X15417381Y-11724428D01*
X15417381Y-11724428D02*
X15426905Y-11714905D01*
X15503095Y-11810143D02*
X15503095Y-11943476D01*
X15503095Y-11829190D02*
X15512619Y-11819667D01*
X15512619Y-11819667D02*
X15531667Y-11810143D01*
X15531667Y-11810143D02*
X15560238Y-11810143D01*
X15560238Y-11810143D02*
X15579286Y-11819667D01*
X15579286Y-11819667D02*
X15588810Y-11838714D01*
X15588810Y-11838714D02*
X15588810Y-11943476D01*
X15712619Y-11943476D02*
X15693572Y-11933952D01*
X15693572Y-11933952D02*
X15684048Y-11924428D01*
X15684048Y-11924428D02*
X15674524Y-11905381D01*
X15674524Y-11905381D02*
X15674524Y-11848238D01*
X15674524Y-11848238D02*
X15684048Y-11829190D01*
X15684048Y-11829190D02*
X15693572Y-11819667D01*
X15693572Y-11819667D02*
X15712619Y-11810143D01*
X15712619Y-11810143D02*
X15741191Y-11810143D01*
X15741191Y-11810143D02*
X15760238Y-11819667D01*
X15760238Y-11819667D02*
X15769762Y-11829190D01*
X15769762Y-11829190D02*
X15779286Y-11848238D01*
X15779286Y-11848238D02*
X15779286Y-11905381D01*
X15779286Y-11905381D02*
X15769762Y-11924428D01*
X15769762Y-11924428D02*
X15760238Y-11933952D01*
X15760238Y-11933952D02*
X15741191Y-11943476D01*
X15741191Y-11943476D02*
X15712619Y-11943476D01*
X15836429Y-11810143D02*
X15912619Y-11810143D01*
X15865000Y-11743476D02*
X15865000Y-11914905D01*
X15865000Y-11914905D02*
X15874524Y-11933952D01*
X15874524Y-11933952D02*
X15893572Y-11943476D01*
X15893572Y-11943476D02*
X15912619Y-11943476D01*
X16099286Y-11810143D02*
X16099286Y-12010143D01*
X16099286Y-11819667D02*
X16118333Y-11810143D01*
X16118333Y-11810143D02*
X16156429Y-11810143D01*
X16156429Y-11810143D02*
X16175476Y-11819667D01*
X16175476Y-11819667D02*
X16185000Y-11829190D01*
X16185000Y-11829190D02*
X16194524Y-11848238D01*
X16194524Y-11848238D02*
X16194524Y-11905381D01*
X16194524Y-11905381D02*
X16185000Y-11924428D01*
X16185000Y-11924428D02*
X16175476Y-11933952D01*
X16175476Y-11933952D02*
X16156429Y-11943476D01*
X16156429Y-11943476D02*
X16118333Y-11943476D01*
X16118333Y-11943476D02*
X16099286Y-11933952D01*
X16308810Y-11943476D02*
X16289762Y-11933952D01*
X16289762Y-11933952D02*
X16280238Y-11914905D01*
X16280238Y-11914905D02*
X16280238Y-11743476D01*
X16470714Y-11943476D02*
X16470714Y-11838714D01*
X16470714Y-11838714D02*
X16461191Y-11819667D01*
X16461191Y-11819667D02*
X16442143Y-11810143D01*
X16442143Y-11810143D02*
X16404048Y-11810143D01*
X16404048Y-11810143D02*
X16385000Y-11819667D01*
X16470714Y-11933952D02*
X16451667Y-11943476D01*
X16451667Y-11943476D02*
X16404048Y-11943476D01*
X16404048Y-11943476D02*
X16385000Y-11933952D01*
X16385000Y-11933952D02*
X16375476Y-11914905D01*
X16375476Y-11914905D02*
X16375476Y-11895857D01*
X16375476Y-11895857D02*
X16385000Y-11876809D01*
X16385000Y-11876809D02*
X16404048Y-11867286D01*
X16404048Y-11867286D02*
X16451667Y-11867286D01*
X16451667Y-11867286D02*
X16470714Y-11857762D01*
X16537381Y-11810143D02*
X16613572Y-11810143D01*
X16565953Y-11743476D02*
X16565953Y-11914905D01*
X16565953Y-11914905D02*
X16575476Y-11933952D01*
X16575476Y-11933952D02*
X16594524Y-11943476D01*
X16594524Y-11943476D02*
X16613572Y-11943476D01*
X16756429Y-11933952D02*
X16737381Y-11943476D01*
X16737381Y-11943476D02*
X16699286Y-11943476D01*
X16699286Y-11943476D02*
X16680238Y-11933952D01*
X16680238Y-11933952D02*
X16670714Y-11914905D01*
X16670714Y-11914905D02*
X16670714Y-11838714D01*
X16670714Y-11838714D02*
X16680238Y-11819667D01*
X16680238Y-11819667D02*
X16699286Y-11810143D01*
X16699286Y-11810143D02*
X16737381Y-11810143D01*
X16737381Y-11810143D02*
X16756429Y-11819667D01*
X16756429Y-11819667D02*
X16765953Y-11838714D01*
X16765953Y-11838714D02*
X16765953Y-11857762D01*
X16765953Y-11857762D02*
X16670714Y-11876809D01*
X16937381Y-11943476D02*
X16937381Y-11743476D01*
X16937381Y-11933952D02*
X16918334Y-11943476D01*
X16918334Y-11943476D02*
X16880238Y-11943476D01*
X16880238Y-11943476D02*
X16861191Y-11933952D01*
X16861191Y-11933952D02*
X16851667Y-11924428D01*
X16851667Y-11924428D02*
X16842143Y-11905381D01*
X16842143Y-11905381D02*
X16842143Y-11848238D01*
X16842143Y-11848238D02*
X16851667Y-11829190D01*
X16851667Y-11829190D02*
X16861191Y-11819667D01*
X16861191Y-11819667D02*
X16880238Y-11810143D01*
X16880238Y-11810143D02*
X16918334Y-11810143D01*
X16918334Y-11810143D02*
X16937381Y-11819667D01*
X17013572Y-12019667D02*
X17023096Y-12010143D01*
X17023096Y-12010143D02*
X17042143Y-11981571D01*
X17042143Y-11981571D02*
X17051667Y-11962524D01*
X17051667Y-11962524D02*
X17061191Y-11933952D01*
X17061191Y-11933952D02*
X17070715Y-11886333D01*
X17070715Y-11886333D02*
X17070715Y-11848238D01*
X17070715Y-11848238D02*
X17061191Y-11800619D01*
X17061191Y-11800619D02*
X17051667Y-11772048D01*
X17051667Y-11772048D02*
X17042143Y-11753000D01*
X17042143Y-11753000D02*
X17023096Y-11724428D01*
X17023096Y-11724428D02*
X17013572Y-11714905D01*
M02*
